<svg fill="none" height="39" viewBox="0 0 35 39" width="35" xmlns="http://www.w3.org/2000/svg" xmlns:xlink="http://www.w3.org/1999/xlink"><linearGradient id="a"><stop offset="0" stop-color="#b9202a"/><stop offset="1" stop-color="#a61e22"/></linearGradient><linearGradient id="b" gradientUnits="userSpaceOnUse" x1="15.5834" x2="16.6103" xlink:href="#a" y1="13.1395" y2="12.9838"/><linearGradient id="c" gradientUnits="userSpaceOnUse" x1="24.7945" x2="24.9509" xlink:href="#a" y1="18.3348" y2="19.366"/><linearGradient id="d" gradientUnits="userSpaceOnUse" x1="10.3725" x2="10.217" xlink:href="#a" y1="21.7852" y2="20.7594"/><linearGradient id="e" gradientUnits="userSpaceOnUse" x1="21.5191" x2="22.358" xlink:href="#a" y1="14.0227" y2="14.6407"/><linearGradient id="f" gradientUnits="userSpaceOnUse" x1="23.6929" x2="23.0775" xlink:href="#a" y1="23.2223" y2="24.0577"/><linearGradient id="g" gradientUnits="userSpaceOnUse" x1="10.8556" x2="11.471" xlink:href="#a" y1="16.0537" y2="15.2184"/><linearGradient id="h"><stop offset="0" stop-color="#972654"/><stop offset="1" stop-color="#613c54"/></linearGradient><linearGradient id="i" gradientUnits="userSpaceOnUse" x1="10.8955" x2="11.6954" xlink:href="#h" y1="16.49" y2="16.0063"/><linearGradient id="j" gradientUnits="userSpaceOnUse" x1="23.6405" x2="24.1271" xlink:href="#h" y1="17.9594" y2="18.7642"/><linearGradient id="k" gradientUnits="userSpaceOnUse" x1="17.3944" x2="16.9107" xlink:href="#h" y1="33.274" y2="32.4741"/><linearGradient id="l" gradientUnits="userSpaceOnUse" x1="18.6692" x2="19.5774" xlink:href="#h" y1="13.7879" y2="14.0123"/><linearGradient id="m" gradientUnits="userSpaceOnUse" x1="24.2836" x2="24.059" xlink:href="#h" y1="20.58" y2="21.4889"/><linearGradient id="n" gradientUnits="userSpaceOnUse" x1="10.9336" x2="11.158" xlink:href="#h" y1="19.2588" y2="18.3505"/><linearGradient id="o"><stop offset="0" stop-color="#0d6a45"/><stop offset="1" stop-color="#25543b"/></linearGradient><linearGradient id="p" gradientUnits="userSpaceOnUse" x1="13.2938" x2="14.4359" xlink:href="#o" y1="11.3039" y2="10.83"/><linearGradient id="q" gradientUnits="userSpaceOnUse" x1="25.8439" x2="26.3179" xlink:href="#o" y1="15.5516" y2="16.6937"/><linearGradient id="r" gradientUnits="userSpaceOnUse" x1="9.03713" x2="8.5632" xlink:href="#o" y1="23.843" y2="22.701"/><linearGradient id="s" gradientUnits="userSpaceOnUse" x1="20.4229" x2="21.5656" xlink:href="#o" y1="10.8708" y2="11.3431"/><linearGradient id="t" gradientUnits="userSpaceOnUse" x1="26.3422" x2="25.8698" xlink:href="#o" y1="22.6545" y2="23.7972"/><linearGradient id="u" gradientUnits="userSpaceOnUse" x1="8.68334" x2="9.15567" xlink:href="#o" y1="16.6062" y2="15.4636"/><linearGradient id="v"><stop offset="0" stop-color="#f0d023"/><stop offset="1" stop-color="#eead25"/></linearGradient><linearGradient id="w" gradientUnits="userSpaceOnUse" x1="9.97695" x2="10.9615" xlink:href="#v" y1="12.6882" y2="11.7497"/><linearGradient id="x" gradientUnits="userSpaceOnUse" x1="24.8689" x2="24.0711" xlink:href="#v" y1="25.6615" y2="26.422"/><linearGradient id="y" gradientUnits="userSpaceOnUse" x1="24.509" x2="25.4475" xlink:href="#v" y1="12.2311" y2="13.2155"/><linearGradient id="z" gradientUnits="userSpaceOnUse" x1="10.8868" x2="10.1264" xlink:href="#v" y1="26.3588" y2="25.5612"/><linearGradient id="A" gradientUnits="userSpaceOnUse" x1="16.9012" x2="18.261" xlink:href="#v" y1="9.44612" y2="9.47864"/><linearGradient id="B" gradientUnits="userSpaceOnUse" x1="27.7016" x2="27.6691" xlink:href="#v" y1="19.2109" y2="20.571"/><linearGradient id="C" gradientUnits="userSpaceOnUse" x1="7.18599" x2="7.21854" xlink:href="#v" y1="20.2481" y2="18.8871"/><linearGradient id="D"><stop offset="0" stop-color="#e46628"/><stop offset="1" stop-color="#df5f28"/></linearGradient><linearGradient id="E" gradientUnits="userSpaceOnUse" x1="9.79545" x2="11.1547" xlink:href="#D" y1="9.33523" y2="8.45762"/><linearGradient id="F" gradientUnits="userSpaceOnUse" x1="27.8353" x2="28.713" xlink:href="#D" y1="12.1112" y2="13.4707"/><linearGradient id="G" gradientUnits="userSpaceOnUse" x1="7.3477" x2="6.63674" xlink:href="#D" y1="26.7371" y2="25.6359"/><linearGradient id="H" gradientUnits="userSpaceOnUse" x1="19.5785" x2="21.1644" xlink:href="#D" y1="7.05292" y2="7.39276"/><linearGradient id="I" gradientUnits="userSpaceOnUse" x1="30.4399" x2="30.1001" xlink:href="#D" y1="19.9118" y2="21.4978"/><linearGradient id="J" gradientUnits="userSpaceOnUse" x1="4.07376" x2="4.41356" xlink:href="#D" y1="21.1938" y2="19.608"/><linearGradient id="K" gradientUnits="userSpaceOnUse" x1="6.97258" x2="7.89447" xlink:href="#D" y1="12.3244" y2="10.9981"/><linearGradient id="L" gradientUnits="userSpaceOnUse" x1="24.7125" x2="23.9617" xlink:href="#D" y1="30.6889" y2="31.769"/><linearGradient id="M" gradientUnits="userSpaceOnUse" x1="24.8484" x2="26.1746" xlink:href="#D" y1="9.22712" y2="10.149"/><linearGradient id="N" gradientUnits="userSpaceOnUse" x1="14.2196" x2="15.8062" xlink:href="#D" y1="7.26038" y2="6.97055"/><linearGradient id="O" gradientUnits="userSpaceOnUse" x1="29.8781" x2="30.1679" xlink:href="#D" y1="16.3748" y2="17.9614"/><linearGradient id="P" gradientUnits="userSpaceOnUse" x1="5.04955" x2="4.75877" xlink:href="#D" y1="22.8323" y2="21.2405"/><linearGradient id="Q"><stop offset="0" stop-color="#5ea057"/><stop offset="1" stop-color="#2a7c4a"/></linearGradient><linearGradient id="R" gradientUnits="userSpaceOnUse" x1="5.21897" x2="6.7105" xlink:href="#Q" y1="8.50279" y2="6.98831"/><linearGradient id="S" gradientUnits="userSpaceOnUse" x1="28.022" x2="29.5388" xlink:href="#Q" y1="6.84823" y2="8.34206"/><linearGradient id="T" gradientUnits="userSpaceOnUse" x1="16.3404" x2="18.7006" xlink:href="#Q" y1="2.53559" y2="2.51747"/><linearGradient id="U" gradientUnits="userSpaceOnUse" x1="32.9637" x2="32.9814" xlink:href="#Q" y1="14.7951" y2="16.5638"/><linearGradient id="V" gradientUnits="userSpaceOnUse" x1="1.89263" x2="1.87495" xlink:href="#Q" y1="20.8478" y2="19.079"/><linearGradient id="W" gradientUnits="userSpaceOnUse" x1="2.27763" x2="3.03696" xlink:href="#Q" y1="14.3057" y2="12.4321"/><linearGradient id="X" gradientUnits="userSpaceOnUse" x1="31.4276" x2="30.8581" xlink:href="#Q" y1="24.6161" y2="26.0212"/><linearGradient id="Y" gradientUnits="userSpaceOnUse" x1="22.9272" x2="25.0107" xlink:href="#Q" y1="3.40867" y2="4.25306"/><linearGradient id="Z" gradientUnits="userSpaceOnUse" x1="9.71721" x2="11.7868" xlink:href="#Q" y1="4.35319" y2="3.47719"/><linearGradient id="aa" gradientUnits="userSpaceOnUse" x1="31.6896" x2="32.4775" xlink:href="#Q" y1="12.0622" y2="13.9238"/><linearGradient id="ab" gradientUnits="userSpaceOnUse" x1="4.23445" x2="3.64554" xlink:href="#Q" y1="26.3178" y2="24.9265"/><path d="m20.0566 23.2256 1.5054.3764.0538-.0538-1.0753-1.3979h3.2258v-.1075l-3.3333-1.4516 2.1505-1.2903v-.0538l-2.6882.1075 1.9355-2.6881-.0538-.0538-3.387 1.5592-.8065-3.9785h-.0538l-.8602 3.7096-1.6129-2.0967h-.0537l.4838 2.5806-3.2258-.9677v.0537l2.4731 2.2581-2.258.1613v.0537l1.8817.8603-2.5807 1.5053.0538.0538 2.8495-.1075-.914 1.1828.0538.1075 1.2365-.3763-.0537 10.0537-3.9248 3.3333.0538.1076 2.4731-.4839-.3763 1.1828.0537.0538 1.7205-.914-.3764 2.3656.2151.0537 2.1505-2.1505 2.0968 1.7742h.1075l.1075-2.2581 3.1183.5377.7527-.6452-2.6882-2.3118z" fill="#595856"/><path d="m19.7292 35.1615-2.0967-.4839-3.6022.7527-.0537-.1075 2.7419-1.9893v-11.7742h-1.828l-.0537-.1075 4.5699-5.6452.1075.0538-.8065 3.2258v14.7312l1.0753 1.1828z" fill="#aba79f"/><path d="m15.9163 11.9893c-.215.3763-.3225.8602-.3225 1.344.0537.3764.3225.699.6451.8065.2688-.2151.4301-.5914.3764-.9677-.1076-.4302-.3226-.8603-.699-1.1828z" fill="url(#b)"/><path d="m25.9699 18.6566c-.4301-.2151-.914-.3226-1.3978-.3226-.3764.0537-.6989.3226-.8065.6451.2151.2689.5914.4302.9678.3764.4838-.1075.9139-.3764 1.2365-.6989z" fill="url(#c)"/><path d="m9.19531 21.4514c.43011.2151.91399.3226 1.39789.3226.3763-.0538.6989-.3226.8064-.6452-.215-.2688-.5914-.4301-.9677-.3763-.4301.1075-.86024.3226-1.23659.6989z" fill="url(#d)"/><path d="m22.5794 13.4414c-.4839.1613-.8602.3764-1.1828.7527-.215.3226-.2688.6989-.1075 1.0215.3763.0538.7527-.1075.9677-.4301.2151-.3764.3226-.8602.3226-1.3441z" fill="url(#e)"/><path d="m24.3 24.2474c-.1613-.4839-.3763-.8602-.7527-1.1828-.3226-.2151-.6989-.2688-1.0215-.1075-.0538.3763.1075.7527.4301.9677.3764.2151.8065.3226 1.3441.3226z" fill="url(#f)"/><path d="m10.2695 15c.1613.4839.3764.8602.7527 1.1828.3226.215.6989.2688 1.0215.1075.0538-.3763-.1075-.7527-.4301-.9677-.3763-.1613-.8602-.3226-1.3441-.3226z" fill="url(#g)"/><path d="m13.1155 13.9785c-.0537.4301.0538.8602.2151 1.2903.1613.2689.4839.4301.8065.4301.1612-.2688.1612-.6451 0-.9139-.2689-.3764-.6452-.6452-1.0216-.8065z" fill="url(#i)"/><path d="m24.0339 16.721c-.4302-.0537-.8603.0538-1.2366.2151-.2688.1613-.4301.4838-.4301.8064.2688.1613.6451.1613.914 0 .3225-.2688.5914-.6451.7527-1.0215z" fill="url(#j)"/><path d="m10.8594 24.3554c.4301.0537.8602-.0538 1.2365-.2151.2688-.1613.4839-.4839.4301-.8064-.2688-.1613-.6451-.1613-.9139 0-.3226.2688-.5914.6451-.7527 1.0215z" fill="url(#k)"/><path d="m19.3564 12.9033c-.3226.2688-.5914.6452-.7527 1.0753-.1075.3226 0 .6452.2688.914.3226-.1076.5914-.3226.6452-.6452.0537-.4839 0-.914-.1613-1.3441z" fill="url(#l)"/><path d="m25.162 21.1826c-.2688-.3226-.6451-.5914-1.0215-.7527-.3225-.0538-.6451 0-.9139.2688.1075.3226.3763.5376.6451.6451.4839.0538.914 0 1.2903-.1612z" fill="url(#m)"/><path d="m10.0547 18.5486c.2688.3226.6451.5914 1.0753.7527.3225.0538.6451 0 .9139-.2688-.1075-.3226-.3225-.5914-.6451-.6452-.4839-.0537-.914 0-1.3441.1613z" fill="url(#n)"/><path d="m13.3337 9.83887c-.1613.53763-.1613 1.12903.0538 1.72043.1613.4301.5376.6989.9677.7527.2688-.3764.3226-.8065.1613-1.2366-.2688-.4838-.6989-.914-1.1828-1.23653z" fill="url(#p)"/><path d="m27.3091 15.5915c-.5377-.1613-1.1291-.1613-1.7205.0538-.4301.1613-.6989.5376-.7527.9677.3764.2689.8065.3226 1.2366.1613.5376-.2688.9677-.6451 1.2366-1.1828z" fill="url(#q)"/><path d="m7.57812 23.8175c.53764.1613 1.12904.1613 1.72043-.0538.43011-.1613.69893-.5376.75265-.9677-.3763-.2689-.80641-.3226-1.23652-.1613-.53763.3226-.96774.6989-1.23656 1.1828z" fill="url(#r)"/><path d="m21.5587 9.89258c-.4839.26882-.914.69892-1.1828 1.23652-.1613.4301-.1075.8603.1613 1.2366.4301-.0538.8064-.3226.9677-.7527.1613-.5914.1613-1.1828.0538-1.72042z" fill="url(#s)"/><path d="m27.3091 23.8175c-.2689-.4839-.699-.914-1.2366-1.1828-.4301-.1613-.8602-.1076-1.2366.1613.0538.4301.3226.8064.7527.9677.5377.1613 1.1291.2151 1.7205.0538z" fill="url(#t)"/><path d="m7.63281 15.6452c.26882.4839.69893.914 1.23656 1.1828.43011.1613.86022.1076 1.23653-.1613-.0537-.4301-.32255-.8064-.75266-.9677-.5914-.1613-1.18279-.2151-1.72043-.0538z" fill="url(#u)"/><path d="m9.46094 11.1836c.05376.6452.32258 1.2366.69896 1.7204.3225.3226.8602.4839 1.2903.3764.1613-.4839 0-.9678-.3226-1.3441-.4839-.3764-1.0215-.6452-1.66666-.7527z" fill="url(#w)"/><path d="m25.3251 26.8811c-.0538-.4839-.2689-.9678-.5914-1.3979-.2689-.2688-.699-.4301-1.0753-.3226-.1075.3764 0 .8065.2688 1.0753.3764.3226.8602.5914 1.3979.6452z" fill="url(#x)"/><path d="m26.0191 11.7207c-.6452.0538-1.2366.3226-1.7204.6989-.3764.3226-.4839.8065-.3764 1.2904.4839.1612.9678.0537 1.3441-.3226.3764-.4301.6452-1.0215.7527-1.6667z" fill="url(#y)"/><path d="m9.67969 26.828c.48391-.0538.96771-.2688 1.39781-.5914.3226-.2688.4301-.6989.3226-1.0753-.3763-.1075-.8064 0-1.0753.2688-.3225.3764-.59135.8603-.64511 1.3979z" fill="url(#z)"/><path d="m17.6355 8.01074c-.3763.48387-.6452 1.07527-.7527 1.72043 0 .48383.2151.96773.6452 1.18283.4301-.2151.6989-.6452.7527-1.18283-.0538-.5914-.2689-1.18279-.6452-1.72043z" fill="url(#A)"/><path d="m29.1376 19.8923c-.4839-.3764-1.0753-.6452-1.7204-.6989-.4839 0-.914.215-1.1828.6451.215.4301.6989.6989 1.1828.6989.6451-.0537 1.2365-.2688 1.7204-.6451z" fill="url(#B)"/><path d="m5.75 19.57c.48387.3763 1.07527.6451 1.72043.6989.48387 0 .96774-.2151 1.1828-.6452-.21506-.4301-.64517-.6989-1.12904-.6989-.64516.0538-1.23656.2688-1.77419.6452z" fill="url(#C)"/><path d="m9.57269 7.41992c-.05377.75269.10753 1.50538.43011 2.15054.3226.48384.8602.75264 1.4516.75264.2688-.53759.2151-1.12898-.0538-1.61286-.5376-.59139-1.129-1.0215-1.82791-1.29032z" fill="url(#E)"/><path d="m29.6767 11.7739c-.7527-.0538-1.5054.1075-2.1506.4301-.4838.3225-.7527.8602-.7527 1.4516.5377.2688 1.1291.215 1.6129-.0538.5914-.5376 1.0753-1.129 1.2904-1.8279z" fill="url(#F)"/><path d="m5.85938 27.0434c.59139.0537 1.23655-.0538 1.77419-.3764.37634-.2688.64516-.6989.5914-1.1828-.43011-.215-.91398-.215-1.29033.0538-.48387.4301-.86021.914-1.07526 1.5054z" fill="url(#G)"/><path d="m20.5383 5.48438c-.5914.48387-1.0215 1.12903-1.2365 1.82795-.1075.53764.0538 1.12904.4839 1.55914.5376-.16129.9677-.64516 1.0752-1.18279.1076-.75269-.0537-1.50538-.3226-2.2043z" fill="url(#H)"/><path d="m31.6137 22.6877c-.4839-.5914-1.1291-.9677-1.828-1.1828-.5376-.1075-1.129.0538-1.5591.4839.1613.5376.6451.9677 1.1828 1.0753.8064.1075 1.5591-.0538 2.2043-.3764z" fill="url(#I)"/><path d="m3.28125 16.6129c.48387.5914 1.12903 1.0215 1.82796 1.2366.59139.1075 1.12903-.0538 1.55914-.4839-.16129-.5376-.64516-.9678-1.1828-1.0753-.75269-.1075-1.50538 0-2.2043.3226z" fill="url(#J)"/><path d="m5.59375 11.2905c.21505.6989.64516 1.344 1.23656 1.8279.48387.3226 1.07527.3764 1.6129.1075.05377-.5914-.21505-1.129-.69892-1.4516-.64516-.3225-1.39785-.5376-2.15054-.4838z" fill="url(#K)"/><path d="m28.9255 27.0972c-.2151-.5914-.5377-1.0753-1.0215-1.5054-.3764-.2688-.8602-.3226-1.2904-.1075-.0537.4838.1613.9139.5377 1.1828.5376.3225 1.129.4838 1.7742.4301z" fill="url(#L)"/><path d="m25.8068 7.7959c-.6989.21505-1.3441.64516-1.8279 1.23656-.3226.48387-.3764 1.07524-.1076 1.61294.5914.0537 1.1291-.2151 1.4516-.69896.3764-.64517.5377-1.39785.4839-2.15054z" fill="url(#M)"/><path d="m14.6747 5.42969c-.3226.64516-.4839 1.39785-.4301 2.15053.1075.5914.4838 1.02151 1.0215 1.23656.4301-.37634.6451-.96774.5376-1.50537-.1613-.75269-.5376-1.39785-1.129-1.88172z" fill="url(#N)"/><path d="m31.723 16.8817c-.6451-.3226-1.3978-.4839-2.1505-.4301-.5914.1075-1.0215.5376-1.2366 1.0753.3764.4301.9678.6451 1.5054.5376.7527-.2151 1.3979-.5914 1.8817-1.1828z" fill="url(#O)"/><path d="m3.22656 22.4191c.64516.3226 1.39785.4839 2.15054.4301.5914-.1075 1.02151-.4838 1.23656-1.0215-.37634-.4301-.96774-.6451-1.50538-.5376-.75269.1613-1.39785.5914-1.88172 1.129z" fill="url(#P)"/><path d="m4.35547 6.12891s.21505 1.72043 1.18279 2.68817c.53764.53763 1.34409.75269 2.04302.53763.16129-.75268-.05377-1.50537-.5914-2.04301-.91398-.96774-2.63441-1.18279-2.63441-1.18279z" fill="url(#R)"/><path d="m30.3785 5.96777s-1.7204.21506-2.6881 1.1828c-.5377.53763-.7527 1.34408-.5377 2.04301.7527.16129 1.5054-.05376 2.043-.53764.6452-.80645 1.0215-1.72042 1.1828-2.68817z" fill="url(#S)"/><path d="m17.4719 0s-1.1828 1.55914-1.1828 3.01075c0 .86022.4838 1.6129 1.1828 2.04301.7526-.43011 1.1828-1.23656 1.1828-2.04301.0537-1.50537-1.1828-3.01075-1.1828-3.01075z" fill="url(#T)"/><path d="m34.8924 19.4618c-.6452-.4839-1.4517-.8065-2.2581-.8602-.6452 0-1.2366.3225-1.5054.9139.3226.5377.914.8603 1.5591.8603.8065-.0538 1.5592-.3764 2.2044-.914z" fill="url(#U)"/><path d="m0 19.7851c.645161.4838 1.45161.8064 2.25806.8602.64517 0 1.23656-.3226 1.50538-.914-.32258-.5376-.91398-.8602-1.55914-.8602-.75269.1075-1.559139.3763-2.2043.914z" fill="url(#V)"/><path d="m.644531 12.5274c.483869.8064 1.182799 1.4516 2.043009 1.9355.64516.2688 1.45162.1613 1.98925-.2689-.10753-.6989-.5914-1.344-1.23656-1.6129-.91398-.3225-1.88172-.3225-2.795699-.0537z" fill="url(#W)"/><path d="m32.6357 25.9678c-.3763-.5914-.8602-1.0753-1.5053-1.4516-.4839-.2151-1.0753-.1075-1.5054.215.0538.5377.4301.9678.914 1.1828.6989.2688 1.3978.2688 2.0967.0538z" fill="url(#X)"/><path d="m24.8896 1.61328s-1.6129.91398-2.0968 2.25807c-.3226.75268-.1613 1.6129.3226 2.2043.8065-.10753 1.4516-.64516 1.7742-1.39785.4839-1.29033 0-3.06452 0-3.06452z" fill="url(#Y)"/><path d="m9.78798 1.7207s-.48387 1.7742.10752 3.06452c.3226.75269.9677 1.23656 1.7742 1.34408.4839-.64516.5914-1.50537.2688-2.2043-.5376-1.29032-2.15052-2.2043-2.15052-2.2043z" fill="url(#Z)"/><path d="m34.1416 12.2586c-.9139-.215-1.8817-.215-2.7957.0538-.6451.2688-1.129.914-1.2365 1.6129.5914.4301 1.3441.5376 1.9892.2688.914-.4301 1.5592-1.129 2.043-1.9355z" fill="url(#aa)"/><path d="m2.42188 26.2369c.69892.1613 1.39784.1613 2.09677-.0538.48387-.215.86021-.6989.91398-1.2365-.43011-.3226-1.02151-.3764-1.50538-.1613-.64516.3226-1.18279.8064-1.50537 1.4516z" fill="url(#ab)"/></svg>