<svg width="135" height="183" viewBox="0 0 135 183" fill="none" xmlns="http://www.w3.org/2000/svg">
<g opacity="0.8" clip-path="url(#clip0_2234_9590)">
<path d="M39.925 176.519C41.3972 176.528 42.4942 177.643 42.4848 179.12C42.4754 180.597 41.3642 181.698 39.8921 181.688C38.42 181.679 37.323 180.564 37.3324 179.087C37.3418 177.61 38.5756 176.51 39.925 176.519Z" fill="#FFCF2D"/>
<path d="M40.0652 154.487C41.5373 154.496 42.6343 155.611 42.6249 157.088C42.6155 158.565 41.5044 159.665 40.0323 159.656C38.5601 159.647 37.4631 158.532 37.4725 157.055C37.4811 155.701 38.7157 154.478 40.0652 154.487Z" fill="#FFCF2D"/>
<path d="M40.2048 132.577C41.677 132.587 42.774 133.702 42.7646 135.179C42.7552 136.656 41.644 137.756 40.1719 137.747C38.6998 137.737 37.6028 136.623 37.6122 135.146C37.6216 133.669 38.8554 132.569 40.2048 132.577Z" fill="#FFCF2D"/>
<path d="M40.345 110.545C41.8171 110.554 42.9141 111.669 42.9047 113.146C42.8953 114.623 41.7842 115.724 40.312 115.715C38.8399 115.705 37.7429 114.59 37.7523 113.113C37.7617 111.636 38.9955 110.537 40.345 110.545Z" fill="#FFCF2D"/>
<path d="M40.4856 88.5129C41.9577 88.5223 43.0547 89.637 43.0453 91.1141C43.0359 92.5911 41.9248 93.6918 40.4527 93.6824C38.9806 93.673 37.8835 92.5583 37.8929 91.0812C37.9015 89.7273 39.1361 88.5043 40.4856 88.5129Z" fill="#FFCF2D"/>
<path d="M40.6257 66.4807C42.0978 66.49 43.1949 67.6048 43.1855 69.0818C43.1761 70.5588 42.0649 71.6596 40.5928 71.6502C39.1207 71.6408 38.0237 70.526 38.0331 69.049C38.0425 67.572 39.2763 66.4721 40.6257 66.4807Z" fill="#FFCF2D"/>
<path d="M40.7654 44.5724C42.2375 44.5818 43.3345 45.6966 43.3251 47.1736C43.3157 48.6506 42.2046 49.7514 40.7325 49.742C39.2603 49.7326 38.1633 48.6178 38.1727 47.1408C38.1821 45.6638 39.4159 44.5639 40.7654 44.5724Z" fill="#FFCF2D"/>
<path d="M40.9055 22.5402C42.3776 22.5496 43.4747 23.6644 43.4653 25.1414C43.4559 26.6184 42.3447 27.7191 40.8726 27.7098C39.4005 27.7004 38.3034 26.5856 38.3128 25.1086C38.3223 23.6316 39.5561 22.5316 40.9055 22.5402Z" fill="#FFCF2D"/>
<path d="M41.0456 0.508027C42.5178 0.517402 43.6148 1.63218 43.6054 3.10918C43.596 4.58618 42.4848 5.68691 41.0127 5.67754C39.5406 5.66816 38.4436 4.55337 38.453 3.07637C38.4616 1.72245 39.6962 0.499433 41.0456 0.508027Z" fill="#FFCF2D"/>
<path d="M58.2039 176.635C59.676 176.644 60.773 177.759 60.7636 179.236C60.7542 180.713 59.6431 181.814 58.1709 181.804C56.6988 181.795 55.6018 180.68 55.6112 179.203C55.6206 177.726 56.7317 176.626 58.2039 176.635Z" fill="#FFCF2D"/>
<path d="M58.344 154.603C59.8161 154.612 60.9131 155.727 60.9037 157.204C60.8943 158.681 59.7832 159.782 58.3111 159.772C56.839 159.763 55.7419 158.648 55.7513 157.171C55.7599 155.817 56.8719 154.593 58.344 154.603Z" fill="#FFCF2D"/>
<path d="M58.4836 132.694C59.9558 132.703 61.0528 133.818 61.0434 135.295C61.034 136.772 59.9228 137.872 58.4507 137.863C56.9786 137.854 55.8816 136.739 55.891 135.262C55.9004 133.785 57.0115 132.684 58.4836 132.694Z" fill="#FFCF2D"/>
<path d="M58.6238 110.661C60.0959 110.671 61.1929 111.785 61.1835 113.262C61.1741 114.74 60.063 115.84 58.5909 115.831C57.1187 115.821 56.0217 114.707 56.0311 113.23C56.0405 111.753 57.1517 110.652 58.6238 110.661Z" fill="#FFCF2D"/>
<path d="M58.7639 88.6291C60.236 88.6385 61.3331 89.7533 61.3237 91.2303C61.3143 92.7073 60.2031 93.808 58.731 93.7986C57.2589 93.7893 56.1618 92.6745 56.1712 91.1975C56.1799 89.8435 57.2918 88.6197 58.7639 88.6291Z" fill="#FFCF2D"/>
<path d="M58.9045 66.5978C60.3767 66.6072 61.4737 67.722 61.4643 69.199C61.4549 70.676 60.3437 71.7768 58.8716 71.7674C57.3995 71.758 56.3025 70.6432 56.3119 69.1662C56.3213 67.6892 57.4324 66.5885 58.9045 66.5978Z" fill="#FFCF2D"/>
<path d="M59.0437 44.6887C60.5158 44.6981 61.6129 45.8128 61.6034 47.2898C61.594 48.7668 60.4829 49.8676 59.0108 49.8582C57.5387 49.8488 56.4416 48.734 56.451 47.257C56.4604 45.78 57.5716 44.6793 59.0437 44.6887Z" fill="#FFCF2D"/>
<path d="M59.1843 22.6564C60.6565 22.6658 61.7535 23.7806 61.7441 25.2576C61.7347 26.7346 60.6235 27.8354 59.1514 27.826C57.6793 27.8166 56.5822 26.7018 56.5917 25.2248C56.6011 23.7478 57.7122 22.6471 59.1843 22.6564Z" fill="#FFCF2D"/>
<path d="M59.3245 0.624223C60.7966 0.633598 61.8936 1.74837 61.8842 3.22538C61.8748 4.70239 60.7637 5.80312 59.2915 5.79375C57.8194 5.78437 56.7224 4.66958 56.7318 3.19257C56.7404 1.83865 57.8523 0.614848 59.3245 0.624223Z" fill="#FFCF2D"/>
<path d="M3.48999 176.286C4.96211 176.296 6.05914 177.41 6.04974 178.887C6.04033 180.365 4.92919 181.465 3.45707 181.456C1.98495 181.446 0.887914 180.332 0.89732 178.855C0.906726 177.378 2.01787 176.277 3.48999 176.286Z" fill="#FFCF2D"/>
<path d="M3.63013 154.254C5.10224 154.263 6.19928 155.378 6.18987 156.855C6.18047 158.332 5.06932 159.433 3.5972 159.424C2.12509 159.414 1.02805 158.299 1.03746 156.822C1.04608 155.469 2.15801 154.245 3.63013 154.254Z" fill="#FFCF2D"/>
<path d="M3.76977 132.346C5.24189 132.355 6.33893 133.47 6.32952 134.947C6.32012 136.424 5.20897 137.525 3.73685 137.515C2.26473 137.506 1.16848 136.268 1.17711 134.914C1.18651 133.437 2.29765 132.337 3.76977 132.346Z" fill="#FFCF2D"/>
<path d="M3.90991 110.314C5.38203 110.323 6.47906 111.438 6.46966 112.915C6.46025 114.392 5.34911 115.493 3.87699 115.483C2.40487 115.474 1.30862 114.236 1.31724 112.882C1.32586 111.528 2.43779 110.304 3.90991 110.314Z" fill="#FFCF2D"/>
<path d="M4.05054 88.2814C5.52265 88.2908 6.61969 89.4056 6.61028 90.8826C6.60088 92.3596 5.48973 93.4604 4.01761 93.451C2.5455 93.4416 1.44846 92.3268 1.45787 90.8498C1.46649 89.4959 2.57842 88.2721 4.05054 88.2814Z" fill="#FFCF2D"/>
<path d="M4.19067 66.2492C5.66279 66.2586 6.75983 67.3734 6.75042 68.8504C6.74101 70.3274 5.62987 71.4281 4.15775 71.4187C2.68563 71.4094 1.5886 70.2946 1.598 68.8176C1.60741 67.3406 2.71855 66.2398 4.19067 66.2492Z" fill="#FFCF2D"/>
<path d="M4.33032 44.34C5.80244 44.3494 6.89947 45.4642 6.89007 46.9412C6.88066 48.4182 5.76952 49.5189 4.2974 49.5096C2.82528 49.5002 1.72825 48.3854 1.73765 46.9084C1.74706 45.4314 2.8582 44.3307 4.33032 44.34Z" fill="#FFCF2D"/>
<path d="M4.47046 22.3078C5.94258 22.3172 7.03961 23.432 7.03021 24.909C7.0208 26.386 5.90966 27.4867 4.43754 27.4773C2.96542 27.468 1.86838 26.3532 1.87779 24.8762C1.88719 23.3992 2.99834 22.2984 4.47046 22.3078Z" fill="#FFCF2D"/>
<path d="M4.61108 0.275605C6.0832 0.28498 7.18024 1.39975 7.17083 2.87676C7.16142 4.35376 6.05028 5.45449 4.57816 5.44512C3.10604 5.43574 2.00901 4.32095 2.01841 2.84395C2.02704 1.49002 3.13896 0.26623 4.61108 0.275605Z" fill="#FFCF2D"/>
<path d="M21.7688 176.403C23.2409 176.412 24.338 177.527 24.3285 179.004C24.3191 180.481 23.0853 181.581 21.7359 181.572C20.2638 181.563 19.1667 180.448 19.1761 178.971C19.1855 177.494 20.2967 176.393 21.7688 176.403Z" fill="#FFCF2D"/>
<path d="M21.9094 154.37C23.3815 154.38 24.4786 155.494 24.4692 156.971C24.4598 158.448 23.3486 159.549 21.8765 159.54C20.4044 159.53 19.3073 158.416 19.3168 156.939C19.3254 155.585 20.4373 154.361 21.9094 154.37Z" fill="#FFCF2D"/>
<path d="M22.0486 132.462C23.5207 132.471 24.6177 133.586 24.6083 135.063C24.5989 136.54 23.4878 137.641 22.0157 137.632C20.5435 137.622 19.4465 136.507 19.4559 135.03C19.4653 133.553 20.5765 132.453 22.0486 132.462Z" fill="#FFCF2D"/>
<path d="M22.1892 110.43C23.6613 110.439 24.7584 111.554 24.749 113.031C24.7395 114.508 23.6284 115.609 22.1563 115.599C20.6842 115.59 19.5871 114.475 19.5965 112.998C19.6059 111.521 20.7171 110.421 22.1892 110.43Z" fill="#FFCF2D"/>
<path d="M22.3293 88.3977C23.8015 88.407 24.8985 89.5218 24.8891 90.9988C24.8797 92.4758 23.7685 93.5766 22.2964 93.5672C20.8243 93.5578 19.7273 92.443 19.7367 90.966C19.7453 89.6121 20.8572 88.3883 22.3293 88.3977Z" fill="#FFCF2D"/>
<path d="M22.4695 66.3654C23.9416 66.3748 25.0386 67.4896 25.0292 68.9666C25.0198 70.4436 23.9087 71.5443 22.4366 71.535C20.9644 71.5256 19.8674 70.4108 19.8768 68.9338C19.8862 67.4568 20.9974 66.3561 22.4695 66.3654Z" fill="#FFCF2D"/>
<path d="M22.6091 44.4563C24.0812 44.4656 25.1783 45.5804 25.1689 47.0574C25.1595 48.5344 24.0483 49.6352 22.5762 49.6258C21.1041 49.6164 20.0071 48.5016 20.0165 47.0246C20.0259 45.5476 21.137 44.4469 22.6091 44.4563Z" fill="#FFCF2D"/>
<path d="M22.7493 22.425C24.2214 22.4344 25.3184 23.5492 25.309 25.0262C25.2996 26.5032 24.1885 27.6039 22.7163 27.5945C21.2442 27.5852 20.1472 26.4704 20.1566 24.9934C20.166 23.5163 21.2771 22.4156 22.7493 22.425Z" fill="#FFCF2D"/>
<path d="M22.8899 0.392778C24.362 0.402152 25.459 1.51693 25.4496 2.99394C25.4402 4.47095 24.3291 5.57168 22.857 5.5623C21.3849 5.55293 20.2878 4.43813 20.2972 2.96113C20.3058 1.6072 21.4178 0.383403 22.8899 0.392778Z" fill="#FFCF2D"/>
<path d="M76.3601 176.75C77.8322 176.76 78.9293 177.874 78.9199 179.351C78.9104 180.828 77.7993 181.929 76.3272 181.92C74.8551 181.91 73.758 180.796 73.7674 179.319C73.7768 177.842 75.0107 176.742 76.3601 176.75Z" fill="#FFCF2D"/>
<path d="M76.5002 154.718C77.9724 154.727 79.0694 155.842 79.06 157.319C79.0506 158.796 77.9394 159.897 76.4673 159.887C74.9952 159.878 73.8982 158.763 73.9076 157.286C73.9162 155.932 75.1508 154.709 76.5002 154.718Z" fill="#FFCF2D"/>
<path d="M76.6399 132.81C78.112 132.819 79.209 133.934 79.1996 135.411C79.1902 136.888 78.0791 137.989 76.607 137.979C75.1348 137.97 74.0378 136.855 74.0472 135.378C74.0566 133.901 75.2904 132.801 76.6399 132.81Z" fill="#FFCF2D"/>
<path d="M76.78 110.778C78.2521 110.787 79.3492 111.902 79.3398 113.379C79.3304 114.856 78.2192 115.956 76.7471 115.947C75.275 115.938 74.178 114.823 74.1874 113.346C74.1968 111.869 75.4306 110.769 76.78 110.778Z" fill="#FFCF2D"/>
<path d="M76.9207 88.7453C78.3928 88.7547 79.4898 89.8695 79.4804 91.3465C79.471 92.8235 78.3599 93.9242 76.8877 93.9148C75.4156 93.9055 74.3186 92.7907 74.328 91.3137C74.3366 89.9597 75.5712 88.7367 76.9207 88.7453Z" fill="#FFCF2D"/>
<path d="M77.0608 66.7131C78.5329 66.7225 79.6299 67.8373 79.6205 69.3143C79.6111 70.7913 78.5 71.892 77.0279 71.8826C75.5557 71.8732 74.4587 70.7585 74.4681 69.2814C74.4775 67.8044 75.7113 66.7045 77.0608 66.7131Z" fill="#FFCF2D"/>
<path d="M77.2004 44.8039C78.6726 44.8133 79.7696 45.9281 79.7602 47.4051C79.7508 48.8821 78.6396 49.9828 77.1675 49.9734C75.6954 49.9641 74.5984 48.8493 74.6078 47.3723C74.6172 45.8952 75.851 44.7953 77.2004 44.8039Z" fill="#FFCF2D"/>
<path d="M77.3406 22.7726C78.8127 22.782 79.9097 23.8968 79.9003 25.3738C79.8909 26.8508 78.7798 27.9516 77.3077 27.9422C75.8355 27.9328 74.7385 26.818 74.7479 25.341C74.7573 23.864 75.9911 22.7641 77.3406 22.7726Z" fill="#FFCF2D"/>
<path d="M77.4807 0.740434C78.9528 0.749809 80.0499 1.86459 80.0404 3.34159C80.031 4.8186 78.9199 5.91934 77.4478 5.90996C75.9757 5.90059 74.8786 4.78579 74.888 3.30878C74.8967 1.95486 76.1313 0.73184 77.4807 0.740434Z" fill="#FFCF2D"/>
<path d="M94.6384 176.866C96.1105 176.876 97.2076 177.991 97.1982 179.468C97.1888 180.945 96.0776 182.045 94.6055 182.036C93.1334 182.027 92.0364 180.912 92.0458 179.435C92.0552 177.958 93.1663 176.857 94.6384 176.866Z" fill="#FFCF2D"/>
<path d="M94.779 154.834C96.2512 154.844 97.3482 155.958 97.3388 157.435C97.3294 158.912 96.2182 160.013 94.7461 160.004C93.274 159.994 92.177 158.88 92.1864 157.403C92.195 156.049 93.3069 154.825 94.779 154.834Z" fill="#FFCF2D"/>
<path d="M94.9187 132.926C96.3908 132.935 97.4878 134.05 97.4784 135.527C97.469 137.004 96.3579 138.105 94.8858 138.096C93.4137 138.086 92.3166 136.971 92.326 135.494C92.3354 134.017 93.4466 132.917 94.9187 132.926Z" fill="#FFCF2D"/>
<path d="M97.6186 113.495C97.6277 112.067 96.4816 110.903 95.0588 110.894C93.636 110.885 92.4753 112.035 92.4662 113.462C92.4571 114.89 93.6031 116.054 95.0259 116.063C96.4487 116.072 97.6095 114.922 97.6186 113.495Z" fill="#FFCF2D"/>
<path d="M95.199 88.8615C96.6711 88.8709 97.7681 89.9857 97.7587 91.4627C97.7493 92.9397 96.6382 94.0404 95.166 94.0311C93.6939 94.0217 92.5969 92.9069 92.6063 91.4299C92.6149 90.076 93.7268 88.8521 95.199 88.8615Z" fill="#FFCF2D"/>
<path d="M95.3396 66.8293C96.8117 66.8387 97.9087 67.9535 97.8993 69.4305C97.8899 70.9075 96.7788 72.0082 95.3067 71.9988C93.8346 71.9895 92.7375 70.8747 92.7469 69.3977C92.7563 67.9206 93.8675 66.8199 95.3396 66.8293Z" fill="#FFCF2D"/>
<path d="M95.4788 44.9211C96.9509 44.9305 98.0479 46.0452 98.0385 47.5223C98.0291 48.9993 96.9179 50.1 95.4458 50.0906C93.9737 50.0812 92.8767 48.9665 92.8861 47.4894C92.8955 46.0124 94.0066 44.9117 95.4788 44.9211Z" fill="#FFCF2D"/>
<path d="M98.1791 25.49C98.1882 24.0625 97.0422 22.8979 95.6194 22.8889C94.1966 22.8798 93.0358 24.0297 93.0267 25.4572C93.0176 26.8848 94.1637 28.0493 95.5865 28.0584C97.0093 28.0675 98.17 26.9176 98.1791 25.49Z" fill="#FFCF2D"/>
<path d="M95.7595 0.856645C97.2316 0.86602 98.3287 1.9808 98.3193 3.4578C98.3099 4.93481 97.1987 6.03555 95.7266 6.02617C94.2545 6.0168 93.1574 4.902 93.1669 3.42499C93.1755 2.07107 94.2874 0.84727 95.7595 0.856645Z" fill="#FFCF2D"/>
<path d="M112.918 176.984C114.39 176.993 115.487 178.108 115.477 179.585C115.468 181.062 114.357 182.162 112.885 182.153C111.413 182.144 110.316 181.029 110.325 179.552C110.334 178.075 111.446 176.974 112.918 176.984Z" fill="#FFCF2D"/>
<path d="M113.058 154.951C114.53 154.961 115.627 156.076 115.618 157.553C115.608 159.03 114.497 160.13 113.025 160.121C111.553 160.112 110.456 158.997 110.465 157.52C110.474 156.166 111.586 154.942 113.058 154.951Z" fill="#FFCF2D"/>
<path d="M113.198 133.042C114.67 133.052 115.767 134.166 115.757 135.643C115.748 137.12 114.637 138.221 113.165 138.212C111.692 138.202 110.595 137.088 110.605 135.611C110.614 134.134 111.725 133.033 113.198 133.042Z" fill="#FFCF2D"/>
<path d="M113.338 111.01C114.81 111.019 115.907 112.134 115.897 113.611C115.888 115.088 114.777 116.189 113.305 116.179C111.833 116.17 110.736 115.055 110.745 113.578C110.754 112.101 111.866 111.001 113.338 111.01Z" fill="#FFCF2D"/>
<path d="M113.478 88.9777C114.95 88.9871 116.047 90.1019 116.038 91.5789C116.028 93.0559 114.917 94.1566 113.445 94.1473C111.973 94.1379 110.876 93.0231 110.885 91.5461C110.894 90.1922 112.006 88.9684 113.478 88.9777Z" fill="#FFCF2D"/>
<path d="M113.618 66.9455C115.091 66.9549 116.188 68.0697 116.178 69.5467C116.169 71.0237 115.058 72.1244 113.585 72.115C112.113 72.1057 111.016 70.9909 111.026 69.5139C111.035 68.0369 112.146 66.9361 113.618 66.9455Z" fill="#FFCF2D"/>
<path d="M113.758 45.0373C115.23 45.0467 116.327 46.1615 116.318 47.6385C116.308 49.1155 115.197 50.2162 113.725 50.2068C112.253 50.1975 111.156 49.0827 111.165 47.6057C111.175 46.1287 112.286 45.0279 113.758 45.0373Z" fill="#FFCF2D"/>
<path d="M113.898 23.0051C115.37 23.0144 116.467 24.1292 116.458 25.6062C116.449 27.0833 115.337 28.184 113.865 28.1746C112.393 28.1652 111.296 27.0504 111.306 25.5734C111.315 24.0964 112.426 22.9957 113.898 23.0051Z" fill="#FFCF2D"/>
<path d="M114.038 0.972856C115.51 0.982231 116.607 2.09701 116.598 3.57402C116.589 5.05102 115.478 6.15176 114.005 6.14238C112.533 6.13301 111.436 5.01821 111.446 3.5412C111.454 2.18728 112.566 0.963481 114.038 0.972856Z" fill="#FFCF2D"/>
<path d="M131.073 177.099C132.546 177.108 133.643 178.223 133.633 179.7C133.624 181.177 132.513 182.278 131.041 182.268C129.568 182.259 128.471 181.144 128.481 179.667C128.49 178.19 129.724 177.09 131.073 177.099Z" fill="#FFCF2D"/>
<path d="M131.214 155.067C132.686 155.076 133.783 156.191 133.774 157.668C133.764 159.145 132.653 160.246 131.181 160.236C129.709 160.227 128.612 159.112 128.621 157.635C128.63 156.281 129.865 155.058 131.214 155.067Z" fill="#FFCF2D"/>
<path d="M131.353 133.158C132.825 133.168 133.922 134.283 133.913 135.76C133.904 137.237 132.792 138.337 131.32 138.328C129.848 138.319 128.751 137.204 128.761 135.727C128.77 134.25 130.004 133.15 131.353 133.158Z" fill="#FFCF2D"/>
<path d="M131.494 111.126C132.966 111.136 134.063 112.25 134.054 113.727C134.044 115.204 132.933 116.305 131.461 116.296C129.989 116.286 128.892 115.172 128.901 113.695C128.911 112.218 130.144 111.118 131.494 111.126Z" fill="#FFCF2D"/>
<path d="M131.634 89.0939C133.106 89.1033 134.203 90.2181 134.194 91.6951C134.184 93.1721 133.073 94.2729 131.601 94.2635C130.129 94.2541 129.032 93.1393 129.041 91.6623C129.05 90.3084 130.285 89.0854 131.634 89.0939Z" fill="#FFCF2D"/>
<path d="M131.774 67.0617C133.246 67.0711 134.343 68.1859 134.334 69.6629C134.325 71.1399 133.213 72.2406 131.741 72.2312C130.269 72.2219 129.172 71.1071 129.181 69.6301C129.191 68.1531 130.425 67.0531 131.774 67.0617Z" fill="#FFCF2D"/>
<path d="M131.914 45.1525C133.386 45.1619 134.483 46.2767 134.474 47.7537C134.464 49.2307 133.353 50.3314 131.881 50.3221C130.409 50.3127 129.312 49.1979 129.321 47.7209C129.331 46.2439 130.564 45.1439 131.914 45.1525Z" fill="#FFCF2D"/>
<path d="M132.054 23.1203C133.527 23.1297 134.624 24.2445 134.614 25.7215C134.605 27.1985 133.494 28.2992 132.022 28.2898C130.549 28.2805 129.452 27.1657 129.462 25.6887C129.471 24.2117 130.705 23.1117 132.054 23.1203Z" fill="#FFCF2D"/>
<path d="M132.195 1.08809C133.667 1.09747 134.764 2.21224 134.754 3.68925C134.745 5.16626 133.634 6.26699 132.162 6.25762C130.69 6.24824 129.593 5.13345 129.602 3.65644C129.611 2.30251 130.845 1.0795 132.195 1.08809Z" fill="#FFCF2D"/>
</g>
<defs>
<clipPath id="clip0_2234_9590">
<rect width="181.184" height="132.739" fill="white" transform="translate(0.880859 181.439) rotate(-89.6351)"/>
</clipPath>
</defs>
</svg>
