<svg width="183" height="400" viewBox="0 0 183 400" fill="none" xmlns="http://www.w3.org/2000/svg">
<path d="M159.369 128.309L143.905 160.169H97.1763L115.954 128.309H159.369Z" fill="white"/>
<path fill-rule="evenodd" clip-rule="evenodd" d="M115.726 127.908H160.009L144.156 160.57H96.4756L115.726 127.908ZM116.183 128.71L97.8772 159.769H143.655L158.73 128.71H116.183Z" fill="#3FB1B5"/>
<path fill-rule="evenodd" clip-rule="evenodd" d="M130.724 134.541C131.081 134.769 131.434 134.996 131.787 135.211C132.358 135.558 133.035 135.669 133.817 135.608C134.603 135.547 135.469 135.314 136.393 135.001C136.97 134.806 137.551 134.586 138.142 134.362C138.505 134.225 138.872 134.086 139.245 133.95C140.209 133.599 141.19 133.278 142.137 133.107C144.691 132.638 146.525 133.313 147.722 134.123C148.316 134.526 148.749 134.958 149.034 135.292C149.177 135.459 149.284 135.602 149.355 135.705C149.391 135.756 149.419 135.798 149.438 135.828C149.447 135.842 149.455 135.854 149.46 135.863C149.463 135.867 149.465 135.871 149.466 135.874L149.468 135.877L149.469 135.878L149.469 135.879C149.47 135.879 149.47 135.879 149.124 136.082C148.779 136.284 148.779 136.284 148.779 136.285L148.777 136.281C148.776 136.279 148.774 136.277 148.772 136.274C148.77 136.27 148.767 136.265 148.763 136.258C148.75 136.238 148.728 136.205 148.699 136.164C148.641 136.08 148.55 135.958 148.426 135.813C148.178 135.523 147.797 135.142 147.273 134.787C146.233 134.083 144.609 133.468 142.281 133.896L142.279 133.896C141.402 134.054 140.474 134.356 139.518 134.703C139.167 134.832 138.808 134.967 138.447 135.103C137.844 135.332 137.237 135.561 136.65 135.76C135.705 136.08 134.765 136.338 133.879 136.407C132.989 136.476 132.129 136.357 131.371 135.895C130.982 135.659 130.607 135.418 130.239 135.183C129.313 134.589 128.43 134.024 127.487 133.615C126.201 133.055 124.847 132.812 123.234 133.262C121.55 133.733 120.082 134.42 119.033 134.991C118.51 135.277 118.092 135.532 117.807 135.715C117.664 135.807 117.555 135.881 117.481 135.931C117.445 135.956 117.417 135.975 117.399 135.988C117.39 135.994 117.383 135.999 117.379 136.002L117.375 136.005L117.374 136.006C117.374 136.006 117.374 136.006 117.139 135.681C116.905 135.356 116.905 135.356 116.905 135.356L116.906 135.356L116.907 135.354L116.914 135.35C116.92 135.346 116.928 135.34 116.938 135.333C116.959 135.318 116.99 135.297 117.029 135.269C117.109 135.215 117.225 135.137 117.375 135.041C117.674 134.849 118.108 134.583 118.651 134.287C119.735 133.697 121.261 132.982 123.019 132.491C124.847 131.98 126.392 132.265 127.806 132.88C128.812 133.317 129.777 133.935 130.724 134.541Z" fill="#3FB1B5"/>
<path fill-rule="evenodd" clip-rule="evenodd" d="M129.123 139.51C129.48 139.738 129.833 139.965 130.186 140.179C130.757 140.527 131.434 140.638 132.216 140.577C133.001 140.516 133.868 140.283 134.792 139.97C135.369 139.774 135.95 139.555 136.541 139.331C136.904 139.194 137.271 139.055 137.644 138.919C138.608 138.568 139.589 138.247 140.536 138.076C143.09 137.607 144.924 138.282 146.121 139.092C146.715 139.494 147.148 139.927 147.433 140.261C147.576 140.428 147.683 140.57 147.754 140.673C147.79 140.725 147.818 140.767 147.837 140.796C147.846 140.811 147.853 140.823 147.859 140.832C147.861 140.836 147.864 140.84 147.865 140.842L147.867 140.846L147.868 140.847L147.868 140.848C147.868 140.848 147.869 140.848 147.523 141.051C147.178 141.253 147.178 141.253 147.178 141.253L147.176 141.249C147.175 141.248 147.173 141.245 147.171 141.242C147.169 141.238 147.166 141.233 147.162 141.227C147.149 141.206 147.127 141.174 147.098 141.132C147.04 141.049 146.949 140.927 146.825 140.782C146.577 140.491 146.196 140.111 145.672 139.756C144.632 139.052 143.008 138.436 140.68 138.864L140.678 138.865C139.801 139.023 138.873 139.324 137.917 139.672C137.566 139.8 137.207 139.936 136.846 140.072C136.243 140.3 135.636 140.53 135.049 140.729C134.104 141.049 133.164 141.307 132.278 141.376C131.388 141.445 130.528 141.326 129.77 140.864C129.381 140.627 129.006 140.387 128.638 140.152C127.712 139.558 126.829 138.993 125.886 138.583C124.6 138.024 123.246 137.78 121.633 138.231C119.949 138.702 118.481 139.389 117.432 139.96C116.909 140.245 116.491 140.501 116.206 140.684C116.063 140.776 115.953 140.849 115.88 140.899C115.844 140.925 115.816 140.944 115.798 140.957C115.789 140.963 115.782 140.968 115.778 140.971L115.773 140.974L115.773 140.975C115.773 140.975 115.773 140.975 115.538 140.65C115.304 140.325 115.304 140.325 115.304 140.325L115.305 140.325L115.306 140.323L115.313 140.318C115.319 140.314 115.327 140.309 115.337 140.301C115.358 140.287 115.389 140.265 115.428 140.238C115.508 140.184 115.624 140.106 115.773 140.01C116.073 139.817 116.507 139.552 117.05 139.256C118.134 138.666 119.659 137.951 121.418 137.459C123.246 136.948 124.79 137.234 126.205 137.848C127.211 138.285 128.176 138.903 129.123 139.51Z" fill="#3FB1B5"/>
<path d="M176.947 271.297C176.947 275.577 165.084 279.038 150.228 279.038C135.372 279.038 123.862 275.577 123.862 271.297C123.862 267.018 135.372 263.557 150.228 263.557C165.084 263.557 176.947 267.034 176.947 271.297Z" fill="#FE5244"/>
<path d="M170.111 266.089V321.38L168.43 313.399C166.621 304.809 159.049 298.671 150.277 298.671C147.635 298.671 145.042 299.232 142.689 300.289C142.608 300.321 142.528 300.369 142.432 300.402L136.269 277.9L132.843 265.384C137.534 264.246 143.601 263.557 150.229 263.557C158.105 263.557 165.197 264.534 170.111 266.089Z" fill="#A0505A"/>
<path d="M170.111 266.089V276.506C165.197 278.06 158.105 279.038 150.229 279.038C145.122 279.038 140.351 278.621 136.269 277.916L132.843 265.399C137.534 264.262 143.601 263.572 150.229 263.572C158.105 263.556 165.197 264.534 170.111 266.089Z" fill="#73325A"/>
<path d="M168.925 319.761C169.357 319.889 173.424 321.027 177.026 321.027C178.979 321.027 180.788 320.691 181.812 319.665C182.693 318.783 182.901 317.501 182.437 315.883C182.02 314.44 181.22 313.543 180.051 313.222C177.906 312.645 174.928 314.248 172.575 315.931C176.241 311.475 179.859 305.818 178.514 302.116C178.034 300.802 176.946 299.92 175.585 299.76C174.448 299.632 173.392 300.032 172.895 300.786C170.59 304.295 168.701 318.703 168.621 319.312L168.925 319.761ZM173.568 301.234C173.856 300.802 174.464 300.545 175.169 300.545C175.281 300.545 175.393 300.545 175.505 300.561C176.017 300.625 177.25 300.914 177.778 302.388C178.13 303.366 178.258 305.161 176.834 308.174C175.489 311.027 173.055 314.376 169.598 318.174C170.11 314.52 171.743 304.007 173.568 301.234ZM181.252 319.104C180.195 320.162 177.794 320.482 174.288 320.033C172.447 319.793 170.734 319.408 169.822 319.168C170.51 318.559 171.791 317.453 173.28 316.427C176.129 314.456 178.402 313.607 179.859 314.008C180.74 314.248 181.332 314.937 181.684 316.107C182.068 317.453 181.924 318.431 181.252 319.104Z" fill="#FFCF2D"/>
<path d="M136.43 304.888L132.732 309.039C128.538 313.751 127.849 320.61 131.035 326.059L147.316 354.009C150.501 359.474 156.345 362.824 162.652 362.824H169.392C174.274 362.824 177.908 358.336 176.9 353.56L168.415 313.414C166.606 304.824 159.034 298.686 150.261 298.686C144.995 298.67 139.952 300.929 136.43 304.888Z" fill="white"/>
<path fill-rule="evenodd" clip-rule="evenodd" d="M136.13 304.621C139.728 300.578 144.879 298.269 150.261 298.285C159.222 298.286 166.957 304.556 168.805 313.331M168.805 313.332L177.29 353.478C178.351 358.503 174.527 363.224 169.39 363.224H162.651C156.201 363.224 150.226 359.799 146.969 354.211L130.689 326.261C127.415 320.662 128.123 313.614 132.432 308.772L136.13 304.622M150.259 299.087C145.107 299.071 140.174 301.281 136.728 305.155L136.727 305.155L133.03 309.306C133.03 309.306 133.03 309.306 133.029 309.306C128.951 313.888 128.281 320.558 131.379 325.857L131.38 325.857L147.66 353.807C147.66 353.807 147.66 353.807 147.66 353.807C150.774 359.149 156.486 362.423 162.651 362.423H169.39C174.019 362.423 177.463 358.17 176.507 353.643L168.022 313.497L168.022 313.497C166.252 305.092 158.844 299.087 150.26 299.087L150.259 299.087Z" fill="#3FB1B5"/>
<path d="M149.028 316.972L170.047 357.743C171.04 359.586 172.272 360.772 173.681 361.525C172.465 362.343 170.992 362.839 169.391 362.839H162.651C156.328 362.839 150.485 359.474 147.315 354.025L131.035 326.059C130.378 324.921 129.882 323.735 129.546 322.501C127.24 313.927 136.99 307.196 144.306 312.228C145.97 313.366 147.603 314.904 149.028 316.972Z" fill="#3FB1B5"/>
<path d="M149.076 317.069H129.673C129.769 316.764 129.881 316.476 130.01 316.203H148.451C148.643 316.46 148.836 316.716 149.028 316.988L149.076 317.069Z" fill="white"/>
<path d="M151.925 322.582H129.577C129.577 322.55 129.561 322.518 129.561 322.502C129.497 322.246 129.433 321.973 129.385 321.717H151.493L151.925 322.582Z" fill="white"/>
<path d="M154.775 328.11H132.234L131.722 327.229H154.326L154.775 328.11Z" fill="white"/>
<path d="M157.624 333.639H135.452L134.94 332.758H157.176L157.624 333.639Z" fill="white"/>
<path d="M160.473 339.152H138.669L138.157 338.287H160.025L160.473 339.152Z" fill="white"/>
<path d="M163.323 344.682H141.887L141.375 343.801H162.859L163.323 344.682Z" fill="white"/>
<path d="M166.172 350.212H145.105L144.593 349.33H165.708L166.172 350.212Z" fill="white"/>
<path d="M169.006 355.725H148.451C148.243 355.436 148.035 355.148 147.843 354.859H168.558L169.006 355.725Z" fill="white"/>
<path d="M173.216 361.254H155.351C154.775 360.998 154.214 360.709 153.67 360.389H172.064C172.432 360.709 172.816 360.998 173.216 361.254Z" fill="white"/>
<path d="M111.375 270.159C111.231 274.39 99.2407 277.82 84.4808 277.82C69.7209 277.82 57.7305 274.406 57.5864 270.159V236.84H111.375V270.159Z" fill="#73325A"/>
<path d="M107.805 275.688L107.725 279.646L106.956 318.286V317.164C106.956 307.244 98.9201 299.198 89.0108 299.198H87.9222C82.8636 299.198 78.3011 301.17 74.9233 304.343L72.5701 288.413L71.1133 278.556C75.0514 279.213 79.6138 279.582 84.4644 279.582C94.4537 279.566 103.146 277.995 107.805 275.688Z" fill="#A0505A"/>
<path d="M107.804 275.688L107.724 279.646C101.769 283.877 83.3749 289.086 72.5852 288.396L71.1284 278.54C75.0665 279.181 79.6289 279.566 84.4795 279.566C94.4528 279.566 103.145 277.995 107.804 275.688Z" fill="#73325A"/>
<path d="M89.8288 363.353H92.8064C100.619 363.353 106.958 357.007 106.958 349.186V317.165C106.958 307.245 98.9217 299.199 89.0124 299.199H87.9238C76.3977 299.199 67.5129 309.376 69.0658 320.819L72.8278 348.513C73.9964 357.007 81.2483 363.353 89.8288 363.353Z" fill="white"/>
<path fill-rule="evenodd" clip-rule="evenodd" d="M68.6686 320.873C67.0831 309.19 76.1547 298.799 87.9233 298.799H89.0119C99.1422 298.799 107.358 307.024 107.358 317.165V349.186C107.358 357.228 100.839 363.754 92.8059 363.754H89.8283C81.0474 363.754 73.6266 357.26 72.4307 348.568L68.6686 320.873ZM69.4618 320.765L73.2237 348.458C74.3651 356.754 81.448 362.953 89.8283 362.953H92.8059C100.397 362.953 106.557 356.786 106.557 349.186V317.165C106.557 307.466 98.7002 299.6 89.0119 299.6H87.9233C76.6395 299.6 67.9416 309.563 69.4618 320.765Z" fill="#3FB1B5"/>
<path d="M102.508 359.49C99.9786 361.878 96.5528 363.353 92.8067 363.353H89.8292C81.2486 363.353 73.9967 357.006 72.8441 348.512L69.0821 320.819C69.018 320.29 68.954 319.761 68.938 319.248C69.8985 313.11 75.1973 308.414 81.6008 308.414C84.7544 308.414 87.668 309.568 89.9252 311.491C92.1824 313.414 93.7673 316.123 94.2635 319.248L99.2102 353.048C99.5784 355.564 100.763 357.808 102.508 359.49Z" fill="#3FB1B5"/>
<path d="M92.7731 314.969H70.4092C70.5693 314.664 70.7614 314.376 70.9535 314.104H92.2448C92.4369 314.376 92.613 314.664 92.7731 314.969Z" fill="white"/>
<path d="M94.4387 320.483H69.0332C69.0012 320.194 68.9691 319.906 68.9531 319.617H94.3106L94.4387 320.483Z" fill="white"/>
<path d="M95.2549 326.012H69.7853L69.6572 325.146H95.1268L95.2549 326.012Z" fill="white"/>
<path d="M96.0548 331.54H70.5372L70.4092 330.658H95.9268L96.0548 331.54Z" fill="white"/>
<path d="M96.8713 337.053H71.2897L71.1616 336.188H96.7433L96.8713 337.053Z" fill="white"/>
<path d="M97.6718 342.582H72.0261L71.9141 341.717H97.5437L97.6718 342.582Z" fill="white"/>
<path d="M98.4878 348.112H72.7781L72.666 347.23H98.3597L98.4878 348.112Z" fill="white"/>
<path d="M99.3045 353.625H74.3632C74.2191 353.337 74.0911 353.048 73.979 352.76H99.1604L99.2084 353.048C99.2405 353.241 99.2725 353.433 99.3045 353.625Z" fill="white"/>
<path d="M102.17 359.154H78.5891C78.269 358.882 77.9488 358.578 77.6606 358.289H101.433C101.657 358.594 101.914 358.882 102.17 359.154Z" fill="white"/>
<path d="M123.014 96.9763V123.965C121.846 120.904 112.593 121.337 102.411 125.199C93.6867 128.516 87.1392 133.068 86.1787 136.225V98.2424C86.1787 86.9438 92.2139 76.8471 101.483 71.334C113.521 73.4335 123.014 83.9308 123.014 96.9763Z" fill="#FFCF2D"/>
<path d="M85.4739 72.5527C77.2775 78.2582 72.0587 87.7298 72.0587 98.2432V129.575H26.4824L32.7738 102.458C35.4472 90.9031 43.8036 81.6878 54.6894 77.7613L85.4739 72.5527Z" fill="#FFCF2D"/>
<path d="M177.651 206.661V269.565C177.651 265.286 165.084 261.824 150.228 261.824C135.372 261.824 123.334 265.286 123.334 269.565V239.419C123.334 238.009 122.181 236.855 120.772 236.855H39.0647C14.4916 236.855 -3.67814 213.953 1.87682 189.994L21.5993 104.925C24.737 91.3505 35.7189 81.0135 49.4382 78.6736L54.689 77.7761C43.8032 81.7026 35.4467 90.9178 32.7733 102.473L26.4819 129.59H72.0582V98.2419C72.0582 87.7285 77.293 78.2409 85.4734 72.5515L92.6772 71.3335C94.166 71.077 95.6228 70.9648 97.0796 70.9648C97.2717 70.9648 97.4478 70.9648 97.6399 70.9648C97.816 70.9648 97.9921 70.9809 98.1521 70.9809C98.1842 70.9809 98.2162 70.9809 98.2482 70.9809C98.3763 70.9809 98.5203 70.9969 98.6484 70.9969C98.6644 70.9969 98.6964 70.9969 98.7124 70.9969C98.7925 70.9969 98.8725 71.0129 98.9366 71.0129C99.0807 71.0289 99.2087 71.0289 99.3528 71.045C99.5129 71.061 99.689 71.077 99.8491 71.0931C100.009 71.1091 100.153 71.1251 100.313 71.1411C100.345 71.1411 100.377 71.1572 100.425 71.1572C100.585 71.1732 100.762 71.2052 100.922 71.2213C100.938 71.2213 100.954 71.2213 100.954 71.2213C101.13 71.2533 101.306 71.2694 101.482 71.3014C92.213 76.8145 86.1778 86.9112 86.1778 98.2099V175.217H146.274C163.595 175.249 177.651 189.304 177.651 206.661Z" fill="#FE5244"/>
<path fill-rule="evenodd" clip-rule="evenodd" d="M86.9082 71.5716C87.0597 71.7896 87.0059 72.0892 86.7881 72.2408C78.6995 77.8713 72.5225 87.9101 72.5225 98.2417V130.054H25.8613L32.2894 102.348M86.9082 71.5716C86.7568 71.3536 86.4575 71.2997 86.2398 71.4513L86.9082 71.5716ZM86.2398 71.4513C77.9357 77.2317 71.562 87.5465 71.562 98.2417L86.2398 71.4513ZM71.562 98.2417V129.093V98.2417ZM71.562 129.093H27.0705H71.562Z" fill="white"/>
<path fill-rule="evenodd" clip-rule="evenodd" d="M132.544 205.012C132.747 205.183 132.773 205.487 132.601 205.689C126.928 212.414 123.814 220.942 123.814 229.756C123.814 230.021 123.599 230.236 123.334 230.236C123.069 230.236 122.854 230.021 122.854 229.756C122.854 220.715 126.047 211.967 131.868 205.069C132.039 204.866 132.342 204.841 132.544 205.012Z" fill="white"/>
<path d="M56.7543 226.566C56.6743 226.566 56.5942 226.55 56.5302 226.502L54.4171 225.348C54.1769 225.219 54.0969 224.931 54.225 224.691C54.353 224.45 54.6412 224.37 54.8813 224.498L56.9944 225.652C57.2346 225.78 57.3146 226.069 57.1865 226.309C57.0905 226.47 56.9304 226.566 56.7543 226.566ZM58.8674 226.021C58.6913 226.021 58.5313 225.925 58.4512 225.764C58.3232 225.524 58.4032 225.235 58.6433 225.107L60.7565 223.953C60.9966 223.825 61.2847 223.921 61.4128 224.146C61.5409 224.386 61.4608 224.675 61.2207 224.803L59.1076 225.957C59.0275 225.989 58.9475 226.021 58.8674 226.021ZM52.5281 224.274C52.448 224.274 52.368 224.258 52.3039 224.21L50.1908 223.056C49.9507 222.928 49.8707 222.639 49.9987 222.399C50.1268 222.158 50.4149 222.078 50.6551 222.206L52.7682 223.36C53.0083 223.489 53.0884 223.777 52.9603 224.017C52.8643 224.178 52.7042 224.274 52.5281 224.274ZM63.0777 223.713C62.9016 223.713 62.7415 223.617 62.6615 223.457C62.5334 223.216 62.6134 222.928 62.8536 222.799L64.9667 221.646C65.3349 221.453 65.6711 221.229 66.0073 220.988C66.2154 220.828 66.5195 220.876 66.6796 221.085C66.8397 221.293 66.7917 221.597 66.5836 221.758C66.2154 222.03 65.8312 222.271 65.4309 222.495L63.3178 223.649C63.2378 223.697 63.1577 223.713 63.0777 223.713ZM48.3498 221.902C48.2538 221.902 48.1577 221.87 48.0617 221.806C47.3893 221.309 46.765 220.732 46.2367 220.075C46.0606 219.867 46.0926 219.562 46.3007 219.402C46.5088 219.226 46.813 219.258 46.9731 219.466C47.4534 220.059 48.0136 220.572 48.622 221.02C48.8301 221.181 48.8781 221.485 48.734 221.694C48.654 221.838 48.5099 221.902 48.3498 221.902ZM68.0243 220.219C67.9123 220.219 67.8162 220.187 67.7202 220.107C67.5121 219.947 67.48 219.642 67.6561 219.434C68.1364 218.841 68.5366 218.2 68.8568 217.495C68.9688 217.254 69.257 217.142 69.4971 217.254C69.7372 217.366 69.8493 217.655 69.7372 217.895C69.3851 218.665 68.9368 219.386 68.4085 220.027C68.2965 220.155 68.1684 220.219 68.0243 220.219ZM45.3402 218.232C45.1641 218.232 44.988 218.136 44.908 217.959C44.5558 217.19 44.2997 216.389 44.1396 215.555C44.0916 215.299 44.2676 215.043 44.5238 214.995C44.7799 214.946 45.0361 215.123 45.0841 215.379C45.2282 216.132 45.4523 216.854 45.7725 217.543C45.8845 217.783 45.7725 218.072 45.5323 218.184C45.4683 218.216 45.4043 218.232 45.3402 218.232ZM70.0094 215.892C69.9774 215.892 69.9454 215.892 69.9294 215.892C69.6732 215.844 69.4971 215.588 69.5451 215.331C69.6412 214.802 69.6892 214.273 69.6892 213.744V213.023C69.6892 212.751 69.8973 212.542 70.1695 212.542C70.4416 212.542 70.6497 212.751 70.6497 213.023V213.744C70.6497 214.337 70.6017 214.93 70.4897 215.507C70.4416 215.732 70.2335 215.892 70.0094 215.892ZM44.4597 213.552C44.1876 213.552 43.9795 213.344 43.9795 213.071V210.667C43.9795 210.395 44.1876 210.187 44.4597 210.187C44.7319 210.187 44.94 210.395 44.94 210.667V213.071C44.94 213.328 44.7159 213.552 44.4597 213.552ZM70.1535 211.1C69.8813 211.1 69.6732 210.892 69.6732 210.619V208.215C69.6732 207.943 69.8813 207.735 70.1535 207.735C70.4256 207.735 70.6337 207.943 70.6337 208.215V210.619C70.6337 210.892 70.4256 211.1 70.1535 211.1ZM44.4597 208.744C44.1876 208.744 43.9795 208.536 43.9795 208.263V205.859C43.9795 205.587 44.1876 205.379 44.4597 205.379C44.7319 205.379 44.94 205.587 44.94 205.859V208.263C44.94 208.52 44.7159 208.744 44.4597 208.744ZM70.1535 206.292C69.8813 206.292 69.6732 206.084 69.6732 205.811V203.407C69.6732 203.135 69.8813 202.927 70.1535 202.927C70.4256 202.927 70.6337 203.135 70.6337 203.407V205.811C70.6337 206.084 70.4256 206.292 70.1535 206.292ZM44.4597 203.936C44.1876 203.936 43.9795 203.728 43.9795 203.455V201.051C43.9795 200.779 44.1876 200.571 44.4597 200.571C44.7319 200.571 44.94 200.779 44.94 201.051V203.455C44.94 203.712 44.7159 203.936 44.4597 203.936ZM70.1535 201.484C69.8813 201.484 69.6732 201.276 69.6732 201.003V198.599C69.6732 198.327 69.8813 198.119 70.1535 198.119C70.4256 198.119 70.6337 198.327 70.6337 198.599V201.003C70.6337 201.276 70.4256 201.484 70.1535 201.484ZM44.4597 199.128C44.1876 199.128 43.9795 198.92 43.9795 198.648V196.58H45.2762C45.5483 196.58 45.7565 196.788 45.7565 197.061C45.7565 197.333 45.5483 197.542 45.2762 197.542H44.94V198.648C44.94 198.904 44.7159 199.128 44.4597 199.128ZM69.289 197.542H66.8877C66.6156 197.542 66.4075 197.333 66.4075 197.061C66.4075 196.788 66.6156 196.58 66.8877 196.58H69.289C69.5612 196.58 69.7693 196.788 69.7693 197.061C69.7693 197.333 69.5612 197.542 69.289 197.542ZM64.4865 197.542H62.0852C61.813 197.542 61.6049 197.333 61.6049 197.061C61.6049 196.788 61.813 196.58 62.0852 196.58H64.4865C64.7586 196.58 64.9667 196.788 64.9667 197.061C64.9667 197.333 64.7586 197.542 64.4865 197.542ZM59.6839 197.542H57.2826C57.0105 197.542 56.8024 197.333 56.8024 197.061C56.8024 196.788 57.0105 196.58 57.2826 196.58H59.6839C59.956 196.58 60.1641 196.788 60.1641 197.061C60.1641 197.333 59.956 197.542 59.6839 197.542ZM54.8813 197.542H52.48C52.2079 197.542 51.9998 197.333 51.9998 197.061C51.9998 196.788 52.2079 196.58 52.48 196.58H54.8813C55.1535 196.58 55.3616 196.788 55.3616 197.061C55.3616 197.333 55.1535 197.542 54.8813 197.542ZM50.0788 197.542H47.6775C47.4053 197.542 47.1972 197.333 47.1972 197.061C47.1972 196.788 47.4053 196.58 47.6775 196.58H50.0788C50.3509 196.58 50.559 196.788 50.559 197.061C50.559 197.333 50.3509 197.542 50.0788 197.542Z" fill="white"/>
<path d="M11.4503 223.905C11.2742 223.905 11.1142 223.809 11.0341 223.649C10.9061 223.408 10.9861 223.12 11.2262 222.992L13.1793 221.918C13.2273 221.886 13.2753 221.87 13.3233 221.838C13.5475 221.71 13.8516 221.79 13.9797 222.014C14.1078 222.238 14.0277 222.543 13.8036 222.671C13.7556 222.703 13.7075 222.735 13.6435 222.751L11.6905 223.825C11.6104 223.889 11.5304 223.905 11.4503 223.905ZM15.5005 221.341C15.3724 221.341 15.2444 221.293 15.1483 221.181C14.9722 220.988 14.9882 220.684 15.1803 220.508C15.7406 219.995 16.2369 219.402 16.6691 218.777C16.8132 218.552 17.1174 218.504 17.3415 218.649C17.5656 218.793 17.6136 219.097 17.4696 219.322C17.0053 220.011 16.445 220.652 15.8367 221.229C15.7246 221.309 15.6126 221.341 15.5005 221.341ZM18.1739 217.398C18.1099 217.398 18.0619 217.382 17.9978 217.366C17.7577 217.27 17.6296 216.998 17.7257 216.741C17.9978 216.02 18.19 215.283 18.302 214.53C18.334 214.273 18.5741 214.081 18.8463 214.113C19.1024 214.145 19.2945 214.386 19.2625 214.658C19.1505 215.491 18.9424 216.309 18.6382 217.094C18.5421 217.286 18.366 217.398 18.1739 217.398ZM18.8623 212.687C18.5902 212.687 18.3821 212.478 18.3821 212.206V209.802C18.3821 209.529 18.5902 209.321 18.8623 209.321C19.1345 209.321 19.3426 209.529 19.3426 209.802V212.206C19.3426 212.462 19.1345 212.687 18.8623 212.687ZM18.8623 207.879C18.5902 207.879 18.3821 207.67 18.3821 207.398V204.994C18.3821 204.722 18.5902 204.513 18.8623 204.513C19.1345 204.513 19.3426 204.722 19.3426 204.994V207.398C19.3426 207.654 19.1345 207.879 18.8623 207.879ZM18.8623 203.071C18.5902 203.071 18.3821 202.862 18.3821 202.59V200.186C18.3821 199.914 18.5902 199.705 18.8623 199.705C19.1345 199.705 19.3426 199.914 19.3426 200.186V202.59C19.3426 202.846 19.1345 203.071 18.8623 203.071ZM18.8623 198.263C18.5902 198.263 18.3821 198.055 18.3821 197.782V197.542H17.1814C16.9093 197.542 16.7012 197.333 16.7012 197.061C16.7012 196.788 16.9093 196.58 17.1814 196.58H19.3426V197.782C19.3426 198.038 19.1345 198.263 18.8623 198.263ZM14.7801 197.542H12.3788C12.1067 197.542 11.8986 197.333 11.8986 197.061C11.8986 196.788 12.1067 196.58 12.3788 196.58H14.7801C15.0523 196.58 15.2604 196.788 15.2604 197.061C15.2604 197.333 15.0363 197.542 14.7801 197.542ZM9.97756 197.542H7.57628C7.30413 197.542 7.09602 197.333 7.09602 197.061C7.09602 196.788 7.30413 196.58 7.57628 196.58H9.97756C10.2497 196.58 10.4578 196.788 10.4578 197.061C10.4578 197.333 10.2337 197.542 9.97756 197.542ZM5.175 197.542H2.77371C2.50157 197.542 2.29346 197.333 2.29346 197.061C2.29346 196.788 2.50157 196.58 2.77371 196.58H5.175C5.44714 196.58 5.65525 196.788 5.65525 197.061C5.65525 197.333 5.43113 197.542 5.175 197.542Z" fill="white"/>
<path d="M123.013 123.966C124.182 127.027 116.786 132.46 106.62 136.323C96.4547 140.185 87.3458 140.778 86.1772 137.701C85.0086 134.624 92.2284 129.079 102.41 125.216C112.591 121.354 121.844 120.889 123.013 123.966Z" fill="#FE5244"/>
<path d="M128.695 223.393V225.092C128.167 224.964 127.607 224.9 127.046 224.9H124.981C121.924 224.9 119.314 222.944 118.322 220.22L124.181 219.434C126.566 219.114 128.695 220.973 128.695 223.393Z" fill="#73325A"/>
<path d="M134.107 231.967V245.012C134.107 248.057 131.642 250.525 128.6 250.525H122.469C120.948 250.525 119.571 249.916 118.579 248.907C117.586 247.913 116.962 246.535 116.962 245.012H120.948C122.261 245.012 123.317 243.954 123.317 242.64V239.227C123.317 237.912 122.261 236.855 120.948 236.855H100.569C92.6131 236.855 86.1616 230.396 86.1616 222.431V136.241C87.1221 133.083 93.6696 128.516 102.394 125.214C108.349 122.955 114 121.865 117.891 121.961V217.831C117.891 221.742 121.06 224.915 124.966 224.915H127.031C130.938 224.899 134.107 228.056 134.107 231.967Z" fill="#A0505A"/>
<path d="M117.891 121.945V130.664C114.993 132.619 111.071 134.622 106.605 136.305C96.4231 140.167 87.3302 140.76 86.1616 137.683V136.225C87.1221 133.068 93.6696 128.5 102.394 125.199C108.365 122.939 114.001 121.849 117.891 121.945Z" fill="#73325A"/>
<path d="M91.2683 57.0215L85.2491 72.5511L54.2246 78.1123L62.3249 57.0215H91.2683Z" fill="#A0505A"/>
<path d="M91.2691 57.0215L88.0194 65.4194L57.251 70.2273L62.3257 57.0215H91.2691Z" fill="#73325A"/>
<path d="M109.455 25.4189C109.455 27.5183 105.821 29.8422 101.627 31.7974C95.9116 34.4738 89.172 36.5092 89.172 36.5092L84.6256 45.0834C90.8049 48.3688 93.2222 54.2665 94.1827 58.3853C94.791 61.0137 94.791 62.8888 94.791 62.8888H51.2157C51.2157 62.8888 39.7696 25.7715 67.3523 16.8928C84.2254 11.4598 109.455 20.4346 109.455 25.4189Z" fill="white"/>
<path fill-rule="evenodd" clip-rule="evenodd" d="M94.6095 17.7131C86.2375 15.5371 75.8137 14.6715 67.4987 17.3489C60.7159 19.5322 56.3534 23.4406 53.6067 28.0693C50.8534 32.7093 49.7098 38.098 49.4193 43.2458C49.1289 48.3914 49.6924 53.2692 50.3304 56.8648C50.6492 58.6613 50.9861 60.1348 51.2429 61.1578C51.3712 61.6692 51.4795 62.0679 51.5555 62.3378C51.5622 62.3617 51.5687 62.3845 51.5749 62.4064H94.2926C94.2818 62.212 94.2644 61.9629 94.2361 61.6668C94.1618 60.8869 94.0127 59.7825 93.7141 58.4926C92.7678 54.4348 90.402 48.6978 84.3996 45.5064L83.9755 45.2809L88.8409 36.1052L89.0326 36.0473L89.0794 36.2029C89.0326 36.0473 89.0325 36.0473 89.0326 36.0473L89.0327 36.0472L89.0336 36.047L89.0511 36.0416C89.0637 36.0378 89.0827 36.032 89.1077 36.0244C89.1578 36.009 89.2323 35.986 89.3293 35.9558C89.5234 35.8954 89.8074 35.8059 90.1663 35.6901C90.8842 35.4585 91.9013 35.1218 93.0963 34.7017C95.4884 33.8608 98.5854 32.6889 101.422 31.3603L101.423 31.3599C103.508 30.3879 105.43 29.335 106.823 28.2775C107.519 27.7486 108.067 27.2312 108.436 26.7367C108.807 26.2404 108.974 25.8011 108.974 25.4173C108.974 24.9909 108.695 24.4236 108 23.7398C107.32 23.07 106.31 22.3563 105.016 21.6389C102.431 20.2062 98.7904 18.7998 94.6095 17.7131ZM94.7902 62.8872L95.2705 62.8872L95.2705 63.368H50.8607L50.7562 63.029L51.215 62.8872C50.7562 63.029 50.7561 63.0287 50.7559 63.0282L50.7537 63.0209L50.7471 62.9993C50.7415 62.9805 50.7332 62.9529 50.7225 62.9167C50.7011 62.8443 50.6701 62.7376 50.631 62.5985C50.5527 62.3204 50.442 61.913 50.3113 61.3921C50.0499 60.3506 49.708 58.8549 49.3847 57.033C48.7385 53.3916 48.1644 48.4351 48.4603 43.1916C48.7561 37.9502 49.9228 32.3948 52.7809 27.5782C55.6458 22.7503 60.1961 18.6895 67.2046 16.4335C75.7626 13.6779 86.39 14.5832 94.8509 16.7824C99.0865 17.8833 102.808 19.3157 105.481 20.7977C106.816 21.5378 107.908 22.3005 108.674 23.0543C109.425 23.7941 109.934 24.5975 109.934 25.4173C109.934 26.0831 109.647 26.7216 109.205 27.3127C108.762 27.9054 108.139 28.4848 107.403 29.0437C105.93 30.1618 103.938 31.2484 101.829 32.2317C98.9508 33.5793 95.8208 34.7632 93.4145 35.609C92.2103 36.0323 91.1853 36.3717 90.4609 36.6054C90.0987 36.7222 89.8116 36.8127 89.6147 36.874C89.5731 36.8869 89.5356 36.8986 89.5022 36.9089L85.2712 44.8881C91.3158 48.3068 93.6967 54.1882 94.6496 58.2744L94.6498 58.2752C94.9595 59.6135 95.1146 60.7607 95.1923 61.5754C95.2312 61.9829 95.2507 62.3076 95.2605 62.532C95.2655 62.6443 95.2679 62.7314 95.2692 62.7913C95.2698 62.8213 95.2702 62.8444 95.2703 62.8605C95.2704 62.8685 95.2705 62.8748 95.2705 62.8793L95.2705 62.8862V62.887C95.2705 62.8871 95.2705 62.8872 94.7902 62.8872Z" fill="#FFCF2D"/>
<path d="M63.3172 22.1803C69.3028 22.1803 74.155 17.3226 74.155 11.3304C74.155 5.33815 69.3028 0.480469 63.3172 0.480469C57.3317 0.480469 52.4795 5.33815 52.4795 11.3304C52.4795 17.3226 57.3317 22.1803 63.3172 22.1803Z" fill="white"/>
<path fill-rule="evenodd" clip-rule="evenodd" d="M63.3176 0.961589C57.5972 0.961589 52.96 5.60401 52.96 11.3307C52.96 17.0574 57.5972 21.6999 63.3176 21.6999C69.0379 21.6999 73.6751 17.0574 73.6751 11.3307C73.6751 5.60401 69.0379 0.961589 63.3176 0.961589ZM51.9995 11.3307C51.9995 5.07294 57.0668 0 63.3176 0C69.5683 0 74.6356 5.07294 74.6356 11.3307C74.6356 17.5885 69.5683 22.6615 63.3176 22.6615C57.0668 22.6615 51.9995 17.5885 51.9995 11.3307Z" fill="#FFCF2D"/>
<path d="M94.1659 58.3837C93.2695 54.4892 91.0283 48.9441 85.5053 45.5945H84.0806C82.7679 45.5945 81.5673 45.0657 80.7028 44.2002C79.8383 43.3348 79.3101 42.1328 79.3101 40.8187C79.3101 38.1743 81.4392 36.0428 84.0806 36.0428L90.1158 36.171H90.2759C90.3879 36.1389 90.5 36.0908 90.6281 36.0588C92.2609 35.7062 97.4317 34.4561 101.722 32.3086L102.218 35.2735L103.819 44.7772C104.908 51.3 100.441 57.3099 94.1659 58.3837Z" fill="#A0505A"/>
<path d="M102.203 35.2579C96.9517 37.3894 90.1001 36.1554 90.1001 36.1554C90.1001 36.1554 96.5515 34.8732 101.706 32.293L102.203 35.2579Z" fill="#73325A"/>
<path fill-rule="evenodd" clip-rule="evenodd" d="M84.0967 38.4319C84.0967 38.2106 84.2759 38.0312 84.4969 38.0312C86.5429 38.0312 88.1949 39.6851 88.1949 41.7334C88.1949 41.9547 88.0157 42.134 87.7947 42.134C87.5736 42.134 87.3945 41.9547 87.3945 41.7334C87.3945 40.1276 86.1008 38.8326 84.4969 38.8326C84.2759 38.8326 84.0967 38.6532 84.0967 38.4319Z" fill="#73325A"/>
<path fill-rule="evenodd" clip-rule="evenodd" d="M122.858 399.92L104.272 245.072L105.226 244.957L123.812 399.805L122.858 399.92Z" fill="#66B0F0"/>
<path fill-rule="evenodd" clip-rule="evenodd" d="M5.13086 399.805L23.7007 244.957L24.6544 245.072L6.08452 399.919L5.13086 399.805Z" fill="#66B0F0"/>
<path fill-rule="evenodd" clip-rule="evenodd" d="M116.947 347.167H11.979V346.205H116.947V347.167Z" fill="#66B0F0"/>
<path d="M8.02509 245.013H120.901C122.246 245.013 123.335 243.923 123.335 242.577V239.276C123.335 237.93 122.246 236.84 120.901 236.84H8.02509C6.68037 236.84 5.5918 237.93 5.5918 239.276V242.577C5.60781 243.923 6.69638 245.013 8.02509 245.013Z" fill="white"/>
<path fill-rule="evenodd" clip-rule="evenodd" d="M5.11084 239.276C5.11084 237.664 6.41443 236.359 8.02439 236.359H120.901C122.511 236.359 123.814 237.664 123.814 239.276V242.578C123.814 244.189 122.511 245.494 120.901 245.494H8.02439C6.42732 245.494 5.12995 244.187 5.11087 242.583L5.11084 242.58V239.276ZM8.02439 237.321C6.94491 237.321 6.07135 238.195 6.07135 239.276V242.575C6.08572 243.662 6.96491 244.533 8.02439 244.533H120.901C121.98 244.533 122.854 243.658 122.854 242.578V239.276C122.854 238.195 121.98 237.321 120.901 237.321H8.02439Z" fill="#FFCF2D"/>
</svg>
