<svg width="136" height="184" viewBox="0 0 136 184" fill="none" xmlns="http://www.w3.org/2000/svg">
<g opacity="0.8" clip-path="url(#clip0_2234_9590)">
<path d="M41.4683 178.008C42.9404 177.99 44.0574 179.085 44.0746 180.562C44.0919 182.039 43.0008 183.16 41.5287 183.177C40.0567 183.194 38.9397 182.099 38.9224 180.622C38.9052 179.145 40.1189 178.023 41.4683 178.008Z" fill="#FFCF2D"/>
<path d="M41.211 155.976C42.683 155.959 43.8 157.054 43.8173 158.531C43.8345 160.008 42.7434 161.128 41.2714 161.146C39.7993 161.163 38.6824 160.068 38.6651 158.591C38.6493 157.237 39.8616 155.992 41.211 155.976Z" fill="#FFCF2D"/>
<path d="M40.9551 134.069C42.4272 134.052 43.5442 135.147 43.5614 136.624C43.5787 138.101 42.4876 139.221 41.0155 139.238C39.5435 139.256 38.4265 138.161 38.4093 136.684C38.392 135.207 39.6058 134.085 40.9551 134.069Z" fill="#FFCF2D"/>
<path d="M40.6978 112.038C42.1699 112.021 43.2868 113.116 43.3041 114.592C43.3214 116.069 42.2303 117.19 40.7582 117.207C39.2862 117.224 38.1692 116.13 38.1519 114.653C38.1347 113.176 39.3484 112.054 40.6978 112.038Z" fill="#FFCF2D"/>
<path d="M40.4405 90.0067C41.9125 89.9895 43.0295 91.0843 43.0468 92.5612C43.064 94.0382 41.9729 95.1588 40.5009 95.176C39.0288 95.1932 37.9119 94.0984 37.8946 92.6214C37.8788 91.2675 39.0911 90.0224 40.4405 90.0067Z" fill="#FFCF2D"/>
<path d="M40.1832 67.9754C41.6552 67.9582 42.7722 69.053 42.7895 70.53C42.8067 72.0069 41.7156 73.1275 40.2436 73.1447C38.7715 73.1619 37.6545 72.0671 37.6373 70.5902C37.62 69.1132 38.8338 67.9912 40.1832 67.9754Z" fill="#FFCF2D"/>
<path d="M39.9268 46.0682C41.3989 46.051 42.5159 47.1458 42.5331 48.6227C42.5504 50.0997 41.4593 51.2203 39.9872 51.2375C38.5152 51.2547 37.3982 50.1599 37.3809 48.6829C37.3637 47.206 38.5774 46.084 39.9268 46.0682Z" fill="#FFCF2D"/>
<path d="M39.6695 24.037C41.1415 24.0198 42.2585 25.1146 42.2758 26.5915C42.293 28.0684 41.2019 29.189 39.7299 29.2062C38.2578 29.2234 37.1409 28.1286 37.1236 26.6517C37.1064 25.1748 38.3201 24.0527 39.6695 24.037Z" fill="#FFCF2D"/>
<path d="M39.4122 2.00572C40.8842 1.98852 42.0012 3.08331 42.0185 4.56024C42.0357 6.03718 40.9446 7.15778 39.4726 7.17498C38.0005 7.19218 36.8835 6.09737 36.8663 4.62044C36.8505 3.26658 38.0628 2.02148 39.4122 2.00572Z" fill="#FFCF2D"/>
<path d="M59.7462 177.794C61.2182 177.777 62.3352 178.871 62.3524 180.348C62.3697 181.825 61.2786 182.946 59.8066 182.963C58.3345 182.98 57.2175 181.885 57.2003 180.409C57.183 178.932 58.2741 177.811 59.7462 177.794Z" fill="#FFCF2D"/>
<path d="M59.4888 155.764C60.9609 155.746 62.0779 156.841 62.0951 158.318C62.1124 159.795 61.0213 160.916 59.5492 160.933C58.0772 160.95 56.9602 159.855 56.9429 158.378C56.9271 157.024 58.0168 155.781 59.4888 155.764Z" fill="#FFCF2D"/>
<path d="M59.233 133.855C60.705 133.838 61.822 134.933 61.8393 136.41C61.8565 137.887 60.7654 139.007 59.2934 139.025C57.8213 139.042 56.7043 137.947 56.6871 136.47C56.6698 134.993 57.7609 133.873 59.233 133.855Z" fill="#FFCF2D"/>
<path d="M58.9757 111.824C60.4477 111.807 61.5647 112.902 61.5819 114.379C61.5992 115.856 60.5081 116.976 59.036 116.993C57.564 117.011 56.447 115.916 56.4298 114.439C56.4125 112.962 57.5036 111.841 58.9757 111.824Z" fill="#FFCF2D"/>
<path d="M58.7183 89.7928C60.1904 89.7756 61.3074 90.8704 61.3246 92.3473C61.3419 93.8243 60.2508 94.9449 58.7787 94.9621C57.3067 94.9793 56.1897 93.8845 56.1724 92.4075C56.1566 91.0537 57.2463 89.81 58.7183 89.7928Z" fill="#FFCF2D"/>
<path d="M58.4605 67.7625C59.9326 67.7453 61.0495 68.8401 61.0668 70.3171C61.0841 71.794 59.993 72.9146 58.5209 72.9318C57.0489 72.949 55.9319 71.8542 55.9146 70.3773C55.8974 68.9003 56.9885 67.7797 58.4605 67.7625Z" fill="#FFCF2D"/>
<path d="M58.2047 45.8543C59.6767 45.8371 60.7937 46.9319 60.8109 48.4089C60.8282 49.8858 59.7371 51.0064 58.2651 51.0236C56.793 51.0408 55.676 49.946 55.6588 48.4691C55.6415 46.9921 56.7326 45.8715 58.2047 45.8543Z" fill="#FFCF2D"/>
<path d="M57.9473 23.8231C59.4194 23.8059 60.5364 24.9007 60.5536 26.3776C60.5709 27.8546 59.4798 28.9752 58.0077 28.9924C56.5357 29.0096 55.4187 27.9148 55.4014 26.4378C55.3842 24.9609 56.4753 23.8403 57.9473 23.8231Z" fill="#FFCF2D"/>
<path d="M57.69 1.79183C59.1621 1.77464 60.279 2.86943 60.2963 4.34637C60.3135 5.82331 59.2225 6.94392 57.7504 6.96111C56.2784 6.97831 55.1614 5.8835 55.1441 4.40656C55.1283 3.0527 56.218 1.80903 57.69 1.79183Z" fill="#FFCF2D"/>
<path d="M5.03522 178.433C6.50727 178.416 7.62425 179.511 7.6415 180.988C7.65876 182.465 6.56766 183.586 5.09562 183.603C3.62357 183.62 2.50659 182.525 2.48933 181.048C2.47208 179.571 3.56317 178.451 5.03522 178.433Z" fill="#FFCF2D"/>
<path d="M4.7779 156.402C6.24995 156.385 7.36692 157.48 7.38418 158.957C7.40143 160.434 6.31034 161.554 4.83829 161.571C3.36624 161.589 2.24927 160.494 2.23201 159.017C2.21619 157.663 3.30585 156.419 4.7779 156.402Z" fill="#FFCF2D"/>
<path d="M4.52204 134.495C5.99409 134.478 7.11106 135.573 7.12832 137.05C7.14557 138.526 6.05448 139.647 4.58243 139.664C3.11038 139.681 1.99197 138.464 1.97615 137.11C1.9589 135.633 3.04999 134.512 4.52204 134.495Z" fill="#FFCF2D"/>
<path d="M4.26471 112.464C5.73676 112.447 6.85374 113.541 6.871 115.018C6.88825 116.495 5.79716 117.616 4.32511 117.633C2.85306 117.65 1.73464 116.432 1.71883 115.078C1.70301 113.725 2.79267 112.481 4.26471 112.464Z" fill="#FFCF2D"/>
<path d="M4.0069 90.4325C5.47895 90.4153 6.59593 91.5101 6.61318 92.987C6.63044 94.4639 5.53934 95.5845 4.0673 95.6017C2.59525 95.6189 1.47827 94.5241 1.46101 93.0472C1.4452 91.6933 2.53485 90.4497 4.0069 90.4325Z" fill="#FFCF2D"/>
<path d="M3.74958 68.4012C5.22163 68.384 6.3386 69.4788 6.35586 70.9557C6.37311 72.4327 5.28202 73.5533 3.80997 73.5705C2.33792 73.5877 1.22095 72.4929 1.20369 71.0159C1.18643 69.539 2.27753 68.4184 3.74958 68.4012Z" fill="#FFCF2D"/>
<path d="M3.49372 46.494C4.96577 46.4768 6.08274 47.5716 6.1 49.0485C6.11726 50.5255 5.02616 51.6461 3.55411 51.6633C2.08206 51.6805 0.965086 50.5857 0.94783 49.1087C0.930575 47.6318 2.02167 46.5112 3.49372 46.494Z" fill="#FFCF2D"/>
<path d="M3.23639 24.4627C4.70844 24.4455 5.82542 25.5403 5.84268 27.0173C5.85993 28.4942 4.76884 29.6148 3.29679 29.632C1.82474 29.6492 0.707762 28.5544 0.690506 27.0775C0.673251 25.6005 1.76435 24.4799 3.23639 24.4627Z" fill="#FFCF2D"/>
<path d="M2.97907 2.4315C4.45112 2.4143 5.5681 3.50909 5.58535 4.98602C5.60261 6.46296 4.51151 7.58356 3.03946 7.60076C1.56742 7.61796 0.450437 6.52315 0.433182 5.04622C0.417364 3.69236 1.50702 2.4487 2.97907 2.4315Z" fill="#FFCF2D"/>
<path d="M23.3131 178.22C24.7851 178.202 25.9021 179.297 25.9193 180.774C25.9366 182.251 24.7228 183.373 23.3734 183.389C21.9014 183.406 20.7844 182.311 20.7672 180.834C20.7499 179.357 21.841 178.237 23.3131 178.22Z" fill="#FFCF2D"/>
<path d="M23.0557 156.188C24.5278 156.171 25.6448 157.266 25.662 158.743C25.6793 160.22 24.5882 161.34 23.1161 161.358C21.6441 161.375 20.5271 160.28 20.5098 158.803C20.494 157.449 21.5837 156.206 23.0557 156.188Z" fill="#FFCF2D"/>
<path d="M22.7999 134.281C24.2719 134.264 25.3889 135.359 25.4062 136.836C25.4234 138.313 24.3323 139.433 22.8603 139.45C21.3882 139.468 20.2712 138.373 20.254 136.896C20.2367 135.419 21.3278 134.298 22.7999 134.281Z" fill="#FFCF2D"/>
<path d="M22.5425 112.25C24.0146 112.233 25.1316 113.327 25.1488 114.804C25.1661 116.281 24.075 117.402 22.6029 117.419C21.1309 117.436 20.0139 116.342 19.9967 114.865C19.9794 113.388 21.0705 112.267 22.5425 112.25Z" fill="#FFCF2D"/>
<path d="M22.2852 90.2186C23.7573 90.2014 24.8743 91.2962 24.8915 92.7731C24.9088 94.2501 23.8177 95.3707 22.3456 95.3879C20.8736 95.4051 19.7566 94.3103 19.7393 92.8333C19.7235 91.4795 20.8132 90.2358 22.2852 90.2186Z" fill="#FFCF2D"/>
<path d="M22.0279 68.1873C23.4999 68.1701 24.6169 69.2649 24.6342 70.7419C24.6514 72.2188 23.5603 73.3394 22.0883 73.3566C20.6162 73.3738 19.4993 72.279 19.482 70.8021C19.4648 69.3251 20.5558 68.2045 22.0279 68.1873Z" fill="#FFCF2D"/>
<path d="M21.7716 46.2801C23.2436 46.2629 24.3606 47.3577 24.3778 48.8347C24.3951 50.3116 23.304 51.4322 21.8319 51.4494C20.3599 51.4666 19.2429 50.3718 19.2257 48.8948C19.2084 47.4179 20.2995 46.2973 21.7716 46.2801Z" fill="#FFCF2D"/>
<path d="M21.5142 24.2489C22.9863 24.2317 24.1033 25.3265 24.1205 26.8034C24.1378 28.2803 23.0467 29.4009 21.5746 29.4181C20.1026 29.4353 18.9856 28.3405 18.9683 26.8636C18.9511 25.3867 20.0422 24.266 21.5142 24.2489Z" fill="#FFCF2D"/>
<path d="M21.2569 2.21762C22.7289 2.20042 23.8459 3.29521 23.8632 4.77215C23.8804 6.24909 22.7893 7.3697 21.3173 7.3869C19.8452 7.40409 18.7283 6.30928 18.711 4.83234C18.6952 3.47848 19.7849 2.23481 21.2569 2.21762Z" fill="#FFCF2D"/>
<path d="M77.9019 177.582C79.374 177.565 80.4909 178.659 80.5082 180.136C80.5255 181.613 79.4344 182.734 77.9623 182.751C76.4903 182.768 75.3733 181.674 75.356 180.197C75.3388 178.72 76.5525 177.598 77.9019 177.582Z" fill="#FFCF2D"/>
<path d="M77.6441 155.551C79.1162 155.533 80.2331 156.628 80.2504 158.105C80.2676 159.582 79.1765 160.703 77.7045 160.72C76.2325 160.737 75.1155 159.642 75.0982 158.165C75.0824 156.811 76.2947 155.566 77.6441 155.551Z" fill="#FFCF2D"/>
<path d="M77.3882 133.643C78.8603 133.626 79.9773 134.721 79.9945 136.198C80.0118 137.675 78.9207 138.795 77.4486 138.813C75.9766 138.83 74.8596 137.735 74.8424 136.258C74.8251 134.781 76.0389 133.659 77.3882 133.643Z" fill="#FFCF2D"/>
<path d="M77.1309 111.612C78.603 111.595 79.7199 112.69 79.7372 114.167C79.7545 115.644 78.6634 116.764 77.1913 116.781C75.7193 116.799 74.6023 115.704 74.585 114.227C74.5678 112.75 75.7815 111.628 77.1309 111.612Z" fill="#FFCF2D"/>
<path d="M76.8736 89.5809C78.3456 89.5637 79.4626 90.6585 79.4799 92.1354C79.4971 93.6124 78.406 94.733 76.934 94.7502C75.4619 94.7674 74.345 93.6726 74.3277 92.1956C74.3119 90.8418 75.5242 89.5967 76.8736 89.5809Z" fill="#FFCF2D"/>
<path d="M76.6163 67.5496C78.0883 67.5324 79.2053 68.6273 79.2226 70.1042C79.2398 71.5811 78.1487 72.7017 76.6767 72.7189C75.2046 72.7361 74.0876 71.6413 74.0704 70.1644C74.0531 68.6874 75.2669 67.5654 76.6163 67.5496Z" fill="#FFCF2D"/>
<path d="M76.3604 45.6424C77.8325 45.6252 78.9494 46.72 78.9667 48.197C78.984 49.6739 77.8929 50.7945 76.4208 50.8117C74.9488 50.8289 73.8318 49.7341 73.8145 48.2571C73.7973 46.7802 75.011 45.6582 76.3604 45.6424Z" fill="#FFCF2D"/>
<path d="M76.1031 23.6112C77.5751 23.594 78.6921 24.6888 78.7094 26.1657C78.7266 27.6426 77.6355 28.7633 76.1635 28.7804C74.6914 28.7976 73.5745 27.7028 73.5572 26.2259C73.5399 24.749 74.7537 23.6269 76.1031 23.6112Z" fill="#FFCF2D"/>
<path d="M75.8453 1.57992C77.3173 1.56272 78.4343 2.65752 78.4516 4.13445C78.4688 5.61139 77.3777 6.732 75.9057 6.7492C74.4336 6.7664 73.3166 5.67159 73.2994 4.19465C73.2836 2.84079 74.4959 1.59569 75.8453 1.57992Z" fill="#FFCF2D"/>
<path d="M96.1797 177.369C97.6518 177.352 98.7688 178.447 98.786 179.924C98.8033 181.4 97.7122 182.521 96.2401 182.538C94.7681 182.555 93.6511 181.461 93.6339 179.984C93.6166 178.507 94.7077 177.386 96.1797 177.369Z" fill="#FFCF2D"/>
<path d="M95.9219 155.338C97.394 155.321 98.511 156.415 98.5282 157.892C98.5455 159.369 97.4544 160.49 95.9823 160.507C94.5103 160.524 93.3933 159.429 93.3761 157.952C93.3602 156.599 94.4499 155.355 95.9219 155.338Z" fill="#FFCF2D"/>
<path d="M95.6661 133.43C97.1381 133.412 98.2551 134.507 98.2724 135.984C98.2896 137.461 97.1985 138.582 95.7265 138.599C94.2544 138.616 93.1374 137.521 93.1202 136.044C93.1029 134.567 94.194 133.447 95.6661 133.43Z" fill="#FFCF2D"/>
<path d="M98.015 113.953C97.9984 112.525 96.8315 111.382 95.4088 111.398C93.986 111.415 92.8462 112.586 92.8629 114.013C92.8795 115.44 94.0464 116.584 95.4691 116.568C96.8919 116.551 98.0317 115.38 98.015 113.953Z" fill="#FFCF2D"/>
<path d="M95.1514 89.368C96.6235 89.3508 97.7404 90.4456 97.7577 91.9225C97.775 93.3995 96.6839 94.5201 95.2118 94.5373C93.7398 94.5545 92.6228 93.4597 92.6055 91.9827C92.5897 90.6289 93.6794 89.3852 95.1514 89.368Z" fill="#FFCF2D"/>
<path d="M94.8941 67.3367C96.3662 67.3196 97.4831 68.4144 97.5004 69.8913C97.5176 71.3682 96.4265 72.4888 94.9545 72.506C93.4825 72.5232 92.3655 71.4284 92.3482 69.9515C92.331 68.4745 93.4221 67.3539 94.8941 67.3367Z" fill="#FFCF2D"/>
<path d="M94.6382 45.4285C96.1103 45.4113 97.2273 46.5061 97.2445 47.9831C97.2618 49.46 96.1707 50.5806 94.6986 50.5978C93.2266 50.615 92.1096 49.5202 92.0924 48.0433C92.0751 46.5663 93.1662 45.4457 94.6382 45.4285Z" fill="#FFCF2D"/>
<path d="M96.9867 25.9518C96.97 24.5244 95.8032 23.3807 94.3804 23.3973C92.9577 23.4139 91.8179 24.5846 91.8345 26.012C91.8512 27.4395 93.0181 28.5832 94.4408 28.5666C95.8636 28.55 97.0034 27.3793 96.9867 25.9518Z" fill="#FFCF2D"/>
<path d="M94.1231 1.36703C95.5952 1.34983 96.7121 2.44463 96.7294 3.92156C96.7466 5.3985 95.6555 6.51911 94.1835 6.53631C92.7115 6.55351 91.5945 5.4587 91.5772 3.98176C91.5614 2.6279 92.6511 1.38423 94.1231 1.36703Z" fill="#FFCF2D"/>
<path d="M114.458 177.155C115.93 177.138 117.047 178.233 117.064 179.71C117.081 181.187 115.99 182.307 114.518 182.324C113.046 182.342 111.929 181.247 111.912 179.77C111.894 178.293 112.986 177.172 114.458 177.155Z" fill="#FFCF2D"/>
<path d="M114.2 155.124C115.672 155.107 116.789 156.201 116.807 157.678C116.824 159.155 115.733 160.276 114.261 160.293C112.789 160.31 111.672 159.216 111.654 157.739C111.639 156.385 112.728 155.141 114.2 155.124Z" fill="#FFCF2D"/>
<path d="M113.944 133.217C115.416 133.199 116.533 134.294 116.551 135.771C116.568 137.248 115.477 138.369 114.005 138.386C112.533 138.403 111.416 137.308 111.399 135.831C111.381 134.354 112.472 133.234 113.944 133.217Z" fill="#FFCF2D"/>
<path d="M113.687 111.185C115.159 111.168 116.276 112.263 116.293 113.74C116.31 115.217 115.219 116.337 113.747 116.355C112.275 116.372 111.158 115.277 111.141 113.8C111.123 112.323 112.215 111.203 113.687 111.185Z" fill="#FFCF2D"/>
<path d="M113.429 89.1541C114.901 89.1369 116.018 90.2317 116.036 91.7087C116.053 93.1856 114.962 94.3062 113.49 94.3234C112.018 94.3406 110.901 93.2458 110.883 91.7689C110.868 90.415 111.957 89.1713 113.429 89.1541Z" fill="#FFCF2D"/>
<path d="M113.172 67.1229C114.644 67.1057 115.761 68.2005 115.778 69.6774C115.795 71.1544 114.704 72.275 113.232 72.2922C111.76 72.3094 110.643 71.2146 110.626 69.7376C110.609 68.2607 111.7 67.1401 113.172 67.1229Z" fill="#FFCF2D"/>
<path d="M112.916 45.2157C114.388 45.1985 115.505 46.2933 115.522 47.7702C115.54 49.2471 114.449 50.3677 112.976 50.3849C111.504 50.4021 110.387 49.3073 110.37 47.8304C110.353 46.3535 111.444 45.2329 112.916 45.2157Z" fill="#FFCF2D"/>
<path d="M112.659 23.1844C114.131 23.1672 115.248 24.262 115.265 25.739C115.282 27.2159 114.191 28.3365 112.719 28.3537C111.247 28.3709 110.13 27.2761 110.113 25.7991C110.096 24.3222 111.187 23.2016 112.659 23.1844Z" fill="#FFCF2D"/>
<path d="M112.401 1.15316C113.873 1.13596 114.99 2.23076 115.008 3.7077C115.025 5.18463 113.934 6.30524 112.462 6.32244C110.99 6.33964 109.873 5.24483 109.856 3.76789C109.84 2.41403 110.929 1.17036 112.401 1.15316Z" fill="#FFCF2D"/>
<path d="M132.613 176.943C134.085 176.926 135.202 178.021 135.219 179.498C135.236 180.975 134.145 182.095 132.673 182.112C131.201 182.13 130.084 181.035 130.067 179.558C130.05 178.081 131.263 176.959 132.613 176.943Z" fill="#FFCF2D"/>
<path d="M132.356 154.912C133.828 154.895 134.945 155.99 134.962 157.466C134.979 158.943 133.888 160.064 132.416 160.081C130.944 160.098 129.827 159.004 129.81 157.527C129.794 156.173 131.006 154.928 132.356 154.912Z" fill="#FFCF2D"/>
<path d="M132.099 133.004C133.571 132.987 134.688 134.081 134.705 135.558C134.723 137.035 133.632 138.156 132.16 138.173C130.688 138.19 129.571 137.095 129.553 135.618C129.536 134.142 130.75 133.02 132.099 133.004Z" fill="#FFCF2D"/>
<path d="M131.842 110.973C133.314 110.956 134.431 112.051 134.448 113.528C134.465 115.005 133.374 116.126 131.902 116.143C130.43 116.16 129.313 115.065 129.296 113.588C129.279 112.111 130.492 110.989 131.842 110.973Z" fill="#FFCF2D"/>
<path d="M131.585 88.9422C133.057 88.925 134.174 90.0198 134.191 91.4968C134.208 92.9737 133.117 94.0943 131.645 94.1115C130.173 94.1287 129.056 93.0339 129.039 91.557C129.023 90.2031 130.235 88.958 131.585 88.9422Z" fill="#FFCF2D"/>
<path d="M131.327 66.911C132.799 66.8938 133.916 67.9886 133.933 69.4655C133.951 70.9425 132.86 72.0631 131.388 72.0803C129.916 72.0975 128.799 71.0027 128.781 69.5257C128.764 68.0488 129.978 66.9267 131.327 66.911Z" fill="#FFCF2D"/>
<path d="M131.071 45.0028C132.543 44.9856 133.66 46.0804 133.678 47.5573C133.695 49.0342 132.604 50.1549 131.132 50.1721C129.66 50.1892 128.543 49.0944 128.525 47.6175C128.508 46.1406 129.722 45.0185 131.071 45.0028Z" fill="#FFCF2D"/>
<path d="M130.814 22.9725C132.286 22.9553 133.403 24.0501 133.42 25.527C133.438 27.004 132.346 28.1246 130.874 28.1418C129.402 28.159 128.285 27.0642 128.268 25.5872C128.251 24.1103 129.465 22.9882 130.814 22.9725Z" fill="#FFCF2D"/>
<path d="M130.557 0.941249C132.029 0.924051 133.146 2.01884 133.163 3.49578C133.18 4.97272 132.089 6.09333 130.617 6.11053C129.145 6.12773 128.028 5.03291 128.011 3.55598C127.995 2.20212 129.207 0.957014 130.557 0.941249Z" fill="#FFCF2D"/>
</g>
<defs>
<clipPath id="clip0_2234_9590">
<rect width="181.184" height="132.739" fill="white" transform="translate(2.51953 183.633) rotate(-90.6694)"/>
</clipPath>
</defs>
</svg>
